<svg xmlns="http://www.w3.org/2000/svg" width="1024" height="1024"><path fill="#853CA3" d="M514 43v2l4 2v2l1.688.625c2.557 1.52 4 3.35 5.828 5.664 2.278 2.626 4.919 4.79 7.554 7.047C540.14 68.43 540.14 68.43 542 73h2v2l1.688.688c4.008 2.275 6.76 5.625 9.625 9.187 2.55 3.125 5.49 5.637 8.55 8.254 3.541 3.1 7.056 6.307 10.137 9.871v2l1.61.625c3.398 1.955 5.9 4.596 8.64 7.375l1.68 1.656c4.07 4.09 4.07 4.09 4.07 6.344l1.79.806c2.265 1.224 3.76 2.485 5.583 4.293l1.959 1.928 2.115 2.113 2.252 2.228q3.683 3.65 7.352 7.312 2.55 2.537 5.102 5.074 5.343 5.32 10.674 10.648c4.567 4.56 9.149 9.105 13.735 13.646 3.516 3.486 7.02 6.984 10.523 10.485q2.528 2.521 5.068 5.03c2.361 2.335 4.706 4.684 7.047 7.038l2.146 2.1 1.916 1.946 1.685 1.68C670 199 670 199 669.883 200.974c-1.073 2.46-2.366 3.877-4.268 5.77l-2.197 2.21-2.426 2.394-2.542 2.543q-3.451 3.447-6.917 6.88c-2.413 2.394-4.818 4.797-7.223 7.198a8457 8457 0 0 1-13.685 13.621 12333 12333 0 0 0-15.576 15.511A27161 27161 0 0 1 583 289l1.868-.003q22.989-.034 45.977-.049 11.118-.007 22.238-.023c17.852-.028 35.704-.02 53.556.05q5.332.022 10.665.036c8.293.019 16.585.063 24.877.147q3.83.033 7.658.04c3.5.01 6.997.05 10.495.097l3.122-.012c6.944.143 6.944.143 10.09 3.153L775 295c1.818 1.637 3.697 3.145 5.61 4.668L782 301v2l1.81.786c2.366 1.312 3.546 2.55 5.245 4.64 4.71 5.562 9.898 10.635 15.07 15.762l2.957 2.943q2.72 2.706 5.442 5.409a766 766 0 0 1 5.104 5.121c2.4 2.441 2.4 2.441 5.372 4.776 3.072 2.625 5.425 5.46 8 8.563l2.813 2.25L836 355v2h2c1.727 1.628 3.36 3.287 5 5q1.749 1.72 3.5 3.438a82 82 0 0 1 5.938 6.562c2.03 2.378 3.905 4.233 6.263 6.239 4.04 3.498 7.862 7.163 11.643 10.937l1.983 1.973q2.048 2.041 4.094 4.087c2.096 2.094 4.2 4.18 6.306 6.266l3.992 3.986 1.912 1.891C893 411.771 893 411.771 893 414l1.809.821c2.162 1.163 3.542 2.298 5.25 4.042l1.67 1.69 1.708 1.76 1.698 1.724a1177 1177 0 0 1 3.306 3.374 444 444 0 0 0 4.344 4.35c2.267 2.292 4.203 4.724 6.215 7.239 2.552 2.686 5.123 5.1 8 7.438 3.079 2.63 5.45 5.425 8 8.562a484 484 0 0 0 5 5q2.235 2.233 4.469 4.469l2.48 2.48 7.582 7.582 2.367 2.365q1.856 1.858 3.704 3.723A89 89 0 0 0 967 486.5c3.947 3.29 7.443 6.775 10.688 10.75 2.016 2.767 2.016 2.767 4.312 3.75v2l1.813.688c2.75 1.65 3.632 3.554 5.187 6.312q-2.341 2.596-4.687 5.188l-2.637 2.917c-2.497 2.702-5.062 5.308-7.676 7.895l-1.687 1.813C971 529 971 529 969 529l-.687 1.75c-1.66 2.845-3.734 4.187-6.313 6.25a210 210 0 0 0-5.45 6.39L955 545h-2l-.625 1.611c-1.941 3.372-4.631 5.898-7.382 8.607l-1.863 1.86q-3.053 3.037-6.114 6.067l-4.253 4.237a8240 8240 0 0 1-11.219 11.153 15051 15051 0 0 0-17.913 17.817 4802 4802 0 0 1-6.245 6.2l-3.862 3.842-1.738 1.718a142 142 0 0 0-9.361 10.296c-1.527 1.706-3.158 3.138-4.925 4.592-3.01 2.486-5.49 5.162-7.945 8.191-2.063 2.4-4.306 4.583-6.555 6.809q-1.524 1.554-3.043 3.113l-3.144 3.2-1.616 1.666c-1.361 1.378-2.775 2.704-4.197 4.021h-2v2a105 105 0 0 1-3.414 3.462c-1.79 1.735-3.5 3.533-5.215 5.343l-3.933 4.07-1.999 2.125-1.943 1.992-1.744 1.824C829 672 829 672 827.055 671.943c-2.71-1.243-4.34-2.891-6.426-5.021l-2.49-2.52-2.577-2.652-2.564-2.605Q809.492 655.579 806 652c-2.42-2.465-4.797-4.838-7.5-7-4.586-3.669-8.36-7.926-12.07-12.45-1.545-1.797-1.545-1.797-4.43-3.55v-2h-2a141 141 0 0 1-5-5l-2.312-2.187C771 618 771 618 771 616l-1.61-.625c-3.398-1.955-5.9-4.596-8.64-7.375l-1.68-1.656c-4.07-4.09-4.07-4.09-4.07-6.344l-1.69-.7c-2.923-1.645-4.911-3.695-7.26-6.09l-1.387-1.403a1194 1194 0 0 1-4.35-4.432 2934 2934 0 0 0-5.762-5.852l-2.573-2.627c-1.642-2.011-1.642-2.011-2.978-1.896l.004 2.836q.045 34.165-.032 68.33c-.025 11.015-.036 22.03-.017 33.044q.027 14.403-.027 28.804c-.02 5.083-.026 10.166-.003 15.25q.03 7.18-.027 14.36a372 372 0 0 0 .014 5.263c.134 14.9.134 14.9-4.303 20.048A77 77 0 0 1 721 768l-2.625 2.75C716 773 716 773 713.25 775.188c-2.325 1.615-2.325 1.615-3.25 3.812h-2l-.687 1.672c-1.7 3.015-3.861 5.14-6.313 7.578l-2.687 2.703C696 793 696 793 694 793l-.75 1.75c-1.433 2.58-3.034 4.311-5.25 6.25h-2l-.687 1.75c-1.65 2.83-3.746 4.233-6.313 6.25l-2.187 2.75L675 814h-2v2c-1.398 1.16-2.8 2.315-4.223 3.445-1.963 1.718-3.592 3.565-5.277 5.555-2.153 2.536-4.287 4.782-6.875 6.875-2.663 1.856-2.663 1.856-3.625 4.125h-2l-.687 1.75c-1.642 2.814-3.749 4.277-6.313 6.25l-1 2h-2v2a236 236 0 0 1-4.363 3.586c-2.001 1.729-3.569 3.73-5.207 5.797-2.339 2.645-5.052 4.843-7.758 7.101-1.78 1.43-1.78 1.43-2.672 3.516h-2l-.812 1.938C617 872 617 872 614 873l-1 3c-1.453 1.395-1.453 1.395-3.25 2.813-2.39 1.965-4.45 3.89-6.375 6.312C601 888 601 888 598.563 889.938c-2.17 1.746-3.685 3.313-5.438 5.437-2.036 2.453-4.1 4.54-6.562 6.563-3.283 2.713-5.967 5.726-8.727 8.96-3.086 3.533-6.285 7.033-9.836 10.102h-2l-.75 1.75c-1.433 2.58-3.034 4.311-5.25 6.25h-2v2a86 86 0 0 1-3.297 3.36 174 174 0 0 0-3.969 3.968l-2.422 2.485-2.324 2.394C544 945 544 945 542 945l-1 3h-2l-.812 1.938C537 952 537 952 534 953l-.875 1.813c-1.492 2.9-3.571 4.144-6.125 6.187a210 210 0 0 0-5.45 6.39L520 969h-2l-1 3h-2l-.812 1.938C513 976 513 976 510 977l-1 3-3 1c-1.622-1.016-1.622-1.016-3.44-2.696l-2.149-1.981c-4.852-4.674-9.627-9.419-14.379-14.193l-3.565-3.57a9939 9939 0 0 1-7.63-7.648q-6.029-6.047-12.064-12.088-12.797-12.816-25.586-25.636-13.834-13.87-27.677-27.732-6-6.008-11.995-12.023-3.721-3.732-7.447-7.46-1.73-1.732-3.456-3.466-2.353-2.363-4.711-4.72l-2.665-2.67c-2.246-2.245-2.246-2.245-5.236-4.117v-2h-2c-1.625-1.375-1.625-1.375-3-3v-2h-2a207 207 0 0 1-4-5 231 231 0 0 0-7.812-7.625C353 829 353 829 353 826a106 106 0 0 1 5.812-6.136l1.872-1.869c2.051-2.044 4.113-4.078 6.175-6.112l4.276-4.256c3.76-3.743 7.529-7.477 11.3-11.21 6.024-5.964 12.035-11.942 18.046-17.92q3.151-3.128 6.308-6.25l3.882-3.852 1.77-1.745c2.453-2.44 4.69-4.818 6.83-7.55L421 757h2v-2c1.574-1.516 1.574-1.516 3.688-3.25 2.665-2.25 5.022-4.45 7.187-7.187L436 742h2l2-4h2v-2l-3 1c-2.366.107-4.734.153-7.102.167l-2.206.018q-3.67.025-7.337.04-2.626.016-5.253.034c-5.757.037-11.513.062-17.27.085l-2.968.012q-13.856.056-27.712.089-17.721.039-35.442.16-12.461.082-24.922.094c-4.962.007-9.923.025-14.884.072q-7.004.063-14.008.039-2.567 0-5.133.038c-2.343.033-4.682.022-7.026 0l-3.965.016c-5.328-1.22-7.988-4.058-11.772-7.864l-2.112-2.047c-2.33-2.27-4.628-4.57-6.923-6.874l-2.652-2.652q-3.612-3.615-7.22-7.232-3.904-3.912-7.811-7.82-6.759-6.764-13.513-13.531a43524 43524 0 0 0-19.544-19.567 139363 139363 0 0 1-47.1-47.152l-15.41-15.43-1.918-1.921a140821 140821 0 0 0-31.63-31.66 44231 44231 0 0 1-19.505-19.53q-6.67-6.684-13.345-13.361-3.856-3.856-7.705-7.717a7787 7787 0 0 0-8.339-8.347c-.818-.82-1.635-1.642-2.477-2.488l-2.246-2.241-1.945-1.948C39.052 516.91 39.052 516.91 37 516c1.488-3.457 3.449-5.7 6.1-8.353l2.6-2.618 2.859-2.846 3.005-3.017a4070 4070 0 0 1 8.17-8.168q4.273-4.269 8.541-8.545 7.167-7.171 14.345-14.334a11859 11859 0 0 0 16.595-16.598q7.113-7.126 14.237-14.242 4.258-4.252 8.508-8.511 3.992-4 7.997-7.988 1.472-1.469 2.94-2.942 1.996-2.001 4.004-3.993l2.266-2.263C141 410 141 410 143 410l.719-1.702c1.574-2.824 3.498-4.774 5.781-7.064l2.688-2.695L155 395.75l2.813-2.836 2.687-2.68 2.469-2.462C165 386 165 386 167 386l.719-1.702c1.574-2.824 3.498-4.774 5.781-7.064l2.688-2.695L179 371.75l2.813-2.836 2.687-2.68 2.469-2.462C189 362 189 362 191 362l1-3a107 107 0 0 1 6-4l1.481 1.497q3.35 3.38 6.707 6.753c.768.777 1.537 1.555 2.33 2.355 3.682 3.699 7.321 7.228 11.482 10.395 2.813 2.625 2.813 2.625 5 5v2l3 1v2l1.75.75c2.58 1.433 4.311 3.034 6.25 5.25v2l1.938.813C240 396 240 396 241 399q1.999 1.004 4 2c1.838 1.66 3.584 3.33 5.32 5.092l1.568 1.568q2.553 2.559 5.096 5.13l3.548 3.555a5661 5661 0 0 1 9.311 9.361q4.752 4.78 9.512 9.552Q288.685 444.622 298 454c.834-5.051 1.132-9.93 1.087-15.053l-.008-2.368c-.01-2.604-.028-5.208-.045-7.812l-.024-5.619q-.025-6.038-.057-12.077c-.033-6.366-.053-12.732-.071-19.099l-.01-3.258-.019-6.595c-.043-14.816-.094-29.631-.175-44.447a7879 7879 0 0 1-.108-30.007c-.01-5.29-.028-10.581-.068-15.872-.038-4.973-.052-9.946-.05-14.92a560 560 0 0 0-.035-5.473 483 483 0 0 1-.012-7.474l-.046-2.185c.079-5.67 1.826-7.86 5.641-11.741l2.625-2.687L309 245l1.688-1.812C312 242 312 242 314 242v-2c1.623-1.73 3.289-3.36 5-5q2.238-2.23 4.469-4.469l16.745-16.744a14390 14390 0 0 0 13.794-13.817l2.25-2.256a134325 134325 0 0 1 57.078-57.16l1.476-1.477q11.865-11.878 23.72-23.764 12.176-12.203 24.362-24.395 6.841-6.846 13.675-13.699a9421 9421 0 0 1 12.846-12.86q2.365-2.366 4.724-4.737a2537 2537 0 0 1 6.428-6.43l1.906-1.923C506.772 47 506.772 47 509 47l1-3c2-1 2-1 4-1m-55.937 96.688c-11.506 13.81-9.25 32.88-9.248 49.825-.002 2.982-.02 5.963-.04 8.944-.446 23.42-.446 23.42 10.538 43.293 11.03 10.203 23.673 11.728 38.328 11.613l3.78.002q3.922-.004 7.846-.029 3.994-.026 7.988-.02c3.879.006 7.757-.002 11.636-.015l3.58.003c13.228-.113 23.813-3.03 33.529-12.304 9.671-11.214 9.149-24.568 9.203-38.684l.017-3.566q.014-3.71.02-7.42c.01-3.754.041-7.507.072-11.262q.01-3.625.016-7.252l.038-3.353c-.036-12.614-2.513-23.036-11.182-32.432-7.898-7.53-17.395-10.136-28.138-10.176l-3.49-.02-3.732-.003-3.878-.01q-4.056-.009-8.112-.007c-3.443 0-6.885-.014-10.328-.031-3.31-.014-6.621-.013-9.932-.014l-3.713-.022c-13.705.036-24.984 2.803-34.798 12.94m48.803 224.316-1.795 1.804-1.896 1.894q-3.169 3.168-6.333 6.343l-4.523 4.522a19743 19743 0 0 0-12.316 12.328q-6.426 6.434-12.856 12.865a81097 81097 0 0 0-24.363 24.384q-13.861 13.877-27.728 27.75Q386.524 484.442 358 513c1.273 2.786 2.583 4.832 4.75 6.991l1.695 1.703 1.853 1.831 1.957 1.958a2710 2710 0 0 0 6.42 6.388q2.233 2.227 4.463 4.453 5.877 5.864 11.767 11.718 5.972 5.945 11.937 11.897a22093 22093 0 0 0 22.64 22.55q2.157 2.144 4.323 4.278C432 589 432 589 433.812 591.375c1.937 2.324 3.834 4.11 6.125 6.063 3.434 2.927 6.172 6.093 9.063 9.562a144 144 0 0 0 3.392 2.918c5.327 4.61 10.217 9.642 15.147 14.668 2.324 2.367 4.658 4.724 6.992 7.082 4.329 4.375 8.654 8.753 12.963 13.148q4.521 4.608 9.072 9.186a622 622 0 0 1 3.44 3.502c1.59 1.63 3.193 3.244 4.802 4.855l2.753 2.796c2.22 2.082 2.22 2.082 4.625 1.771 2.745-1.401 4.333-3.46 6.314-5.801 4.127-4.848 4.127-4.848 6.781-6.82L527 653v-2l3-1c1.391-1.369 1.391-1.369 2.78-3.15 5.836-6.869 12.347-13.1 18.728-19.455l4.239-4.235q5.551-5.545 11.11-11.086 5.65-5.635 11.295-11.275 9.119-9.105 18.242-18.204 3.684-3.673 7.361-7.352a830 830 0 0 1 4.491-4.454c3.453-3.41 6.841-6.802 9.942-10.539 1.843-2.213 3.493-3.815 5.75-5.687 2.435-2.038 4.271-3.879 6.298-6.273 3.496-4.042 7.205-7.781 11.045-11.493q2.025-1.983 4.047-3.969c2.1-2.055 4.202-4.107 6.315-6.148 2.057-1.992 4.099-3.998 6.138-6.008l1.938-1.85c1.962-1.891 1.962-1.891 4.281-4.822-.27-3.275-1.565-4.94-3.84-7.214l-1.831-1.853-2.02-1.996-2.119-2.13a2011 2011 0 0 0-6.967-6.948q-2.413-2.412-4.824-4.825-5.057-5.055-10.126-10.097a5400 5400 0 0 1-12.998-12.981 7095 7095 0 0 0-9.967-9.955 3976 3976 0 0 1-4.793-4.79 2525 2525 0 0 0-6.694-6.665l-2.014-2.021-1.84-1.819-1.6-1.593c-1.332-1.323-1.332-1.323-3.367-1.113l-.793-1.785c-1.271-2.333-2.61-3.819-4.52-5.652l-1.894-1.84L580 427c-12-12-12-12-13.586-13.71-1.341-1.515-1.341-1.515-3.414-1.29v-2c-1.333-1.667-1.333-1.667-3-3h-2v-2c-1.481-1.5-1.481-1.5-3.434-3.063-4.791-4.077-9.201-8.463-13.625-12.933l-2.514-2.526a7225 7225 0 0 1-7.865-7.916q-5.213-5.252-10.433-10.496l-2.427-2.452-2.227-2.237-1.966-1.981c-3.061-2.831-4.154.13-6.643 2.608M868.13 449.07l-2.546.966a1383 1383 0 0 0-8.02 3.089l-5.28 2.016q-5.189 1.98-10.37 3.974a1443 1443 0 0 1-32.538 12.072 4068 4068 0 0 0-32.747 11.92l-3.577 1.315-3.494 1.287a534 534 0 0 1-7.493 2.66l-1.946.678q-2.68.929-5.363 1.849c-2.843.93-2.843.93-4.755 3.104-.167 3.083-.167 3.083 0 6l3.129 1.73 4.433 2.457 2.387 1.322q7.173 3.982 14.297 8.05l3.148 1.794q3.085 1.76 6.163 3.53l2.85 1.625 2.54 1.457c1.968 1.185 1.968 1.185 4.053 1.035l-.016 3.194q-.026 5.901-.039 11.802-.008 2.548-.02 5.095c-.013 2.45-.018 4.9-.023 7.35l-.015 2.277c0 4.531.368 8.81 1.113 13.282l5 2c9.006-7.37 16.512-16.133 24-25 3.762.572 6.396 1.608 9.617 3.617l2.59 1.59 2.668 1.668c8.21 5.287 8.21 5.287 17.125 9.125 2.582-.842 3.701-1.426 4.968-3.858l.642-2.223.724-2.449L862 548l.59-2.157a348 348 0 0 0 1.647-6.54l.612-2.478q.988-4.007 1.967-8.016l1.386-5.621q1.815-7.371 3.622-14.742 1.838-7.485 3.682-14.967a29571 29571 0 0 0 4.143-16.844l.637-2.595 1.166-4.75.53-2.162.507-2.068q.532-2.142 1.078-4.281c1.243-4.875 1.696-8.784 1.433-13.779-1.12-1.336-1.12-1.336-4.008-1.254-4.653.075-8.573 1.642-12.863 3.324M153 472l-3.062 2.188c-9.833 8.548-17.007 22.325-18.16 35.304a182 182 0 0 0-.153 8.195l.003 2.934c.168 10.24 2.703 18.262 7.372 27.379l1.008 2.113c7.254 13.795 20.64 21.33 34.992 25.887 16.44 3.698 34.405 1.367 48.926-6.988 12.928-8.46 20.438-19.396 25.074-34.012 1.505-7.525 1-15.326 1-23h-59v14h45c-3.397 12.456-3.397 12.456-5.5 16.5l-1.219 2.406c-1.242 2.03-2.61 3.424-4.281 5.094v2l-1.562.688c-2.638 1.328-2.638 1.328-5.438 3.687-9.928 7.247-23.26 8.665-35.125 7.063C171.533 561.169 160.99 555.29 154 546c-2.325-3.882-4.206-7.85-6-12l-1.066-2.016c-4.016-8.283-1.816-18.916.754-27.359 4.591-12.233 12.93-21.22 24.855-26.66 11.63-4.567 24.78-4.352 36.457.035a85 85 0 0 1 7.746 4.988c2.25 1.29 2.25 1.29 4.77.375a49.6 49.6 0 0 0 6.797-4.488l2.113-1.633L232 476c-1.377-4.13-4.173-5.323-7.75-7.437l-2.037-1.211c-8.459-4.855-17.473-7.703-27.213-8.352l-1.957-.156c-14.914-.664-28.18 4.585-40.043 13.156m361.625 277.75c-10.078 10.822-10.93 23.145-10.75 37.25q.016 2.04.027 4.082c.024 3.306.06 6.612.098 9.918h-26v28h26l-.016 7.587q-.023 12.388-.036 24.775-.007 7.513-.023 15.026-.016 7.245-.02 14.491-.003 2.769-.01 5.538-.01 3.87-.009 7.737l-.01 2.33c-.069 3.886-.069 3.886 1.124 7.516l2.195-.219c13.314-1.278 13.314-1.278 17.805.219v-2l9 2 1-86 1 1c2 .088 4.002.107 6.004.098l3.315-.008 4.244-.028L563 829v-29h-29c1.027-24.226 1.027-24.226 8-31 7.206-5.865 14.977-5.997 24-7v-23l-2 3v-3c-3.603-.23-7.207-.43-10.812-.625l-3.045-.195c-13.774-.709-25.196 2.003-35.518 11.57"/><path fill="#3F71B4" d="M514 43v2l4 2v2l1.688.625c2.557 1.52 4 3.35 5.828 5.664 2.278 2.626 4.919 4.79 7.554 7.047C540.14 68.43 540.14 68.43 542 73h2v2l1.688.688c4.008 2.275 6.76 5.625 9.625 9.187 2.55 3.125 5.49 5.637 8.55 8.254 3.541 3.1 7.056 6.307 10.137 9.871v2l1.61.625c3.398 1.955 5.9 4.596 8.64 7.375l1.68 1.656c4.07 4.09 4.07 4.09 4.07 6.344l1.79.806c2.265 1.224 3.76 2.485 5.583 4.293l1.959 1.928 2.115 2.113 2.252 2.228q3.683 3.65 7.352 7.312 2.55 2.537 5.102 5.074 5.343 5.32 10.674 10.648c4.567 4.56 9.149 9.105 13.735 13.646 3.516 3.486 7.02 6.984 10.523 10.485q2.528 2.521 5.068 5.03c2.361 2.335 4.706 4.684 7.047 7.038l2.146 2.1 1.916 1.946 1.685 1.68C670 199 670 199 669.882 200.975c-1.07 2.454-2.355 3.87-4.251 5.76l-2.188 2.205-2.416 2.388-2.533 2.54a2280 2280 0 0 1-6.9 6.874c-2.415 2.4-4.823 4.81-7.232 7.217q-6.077 6.071-12.168 12.128a9364 9364 0 0 0-15.559 15.514q-6.706 6.7-13.421 13.391l-4.287 4.277q-4.021 4.009-8.048 8.012l-2.374 2.37a246 246 0 0 1-12.635 11.703c-2.903 2.553-5.631 5.266-8.359 8.004l-1.801 1.797a4105 4105 0 0 0-5.808 5.809l-4.085 4.083q-4.265 4.262-8.525 8.53a9550 9550 0 0 1-10.88 10.876q-4.214 4.21-8.424 8.424l-4.01 4.008a3680 3680 0 0 0-5.619 5.625l-1.642 1.637a146 146 0 0 0-7.727 8.363c-5.715 6.59-12.014 12.643-18.187 18.8l-4.318 4.318q-5.836 5.834-11.676 11.664-6.112 6.104-12.22 12.212a72499 72499 0 0 1-23.119 23.097q-13.167 13.151-26.329 26.307A232754 232754 0 0 1 359 513c1.278 2.803 2.599 4.845 4.784 7.011l1.717 1.716 1.876 1.846 1.982 1.972a1951 1951 0 0 0 4.26 4.225q3.372 3.334 6.73 6.682 7.131 7.093 14.276 14.173 8.287 8.214 16.557 16.445 3.322 3.3 6.654 6.59l4.045 4.026 1.89 1.858c1.448 1.448 2.844 2.947 4.229 4.456v2l1.75.75c2.58 1.433 4.311 3.034 6.25 5.25v2l1.703.719c2.816 1.57 4.777 3.496 7.047 5.781l2.422 2.406C449 605 449 605 449 607l3 1v2l1.656.67c3.084 1.75 5.38 4.103 7.847 6.606l1.627 1.626c1.769 1.77 3.53 3.547 5.292 5.325l3.682 3.69a6102 6102 0 0 1 9.667 9.716c3.287 3.308 6.58 6.61 9.874 9.914Q501.33 657.266 511 667c-1.663 4.307-4.914 7.21-8.115 10.405l-1.897 1.918c-2.07 2.09-4.148 4.17-6.226 6.251l-4.328 4.348a5919 5919 0 0 1-9.081 9.096 3697 3697 0 0 0-11.621 11.682 3249 3249 0 0 1-8.944 8.969q-2.145 2.15-4.283 4.31a1074 1074 0 0 1-6.002 6.004l-1.778 1.812c-5.455 5.372-9.638 5.326-17.068 5.372l-2.21.018q-3.66.025-7.32.04-2.626.016-5.253.034c-5.746.037-11.492.062-17.237.085l-2.965.012q-13.842.056-27.684.089-17.693.039-35.384.16-12.449.082-24.898.094c-4.954.007-9.908.025-14.863.072q-6.991.063-13.984.039-2.561 0-5.122.038c-2.34.033-4.674.022-7.013 0l-3.958.016c-5.323-1.221-7.985-4.062-11.766-7.864l-2.112-2.047c-2.33-2.27-4.628-4.57-6.923-6.874l-2.652-2.652q-3.612-3.615-7.22-7.232-3.904-3.912-7.811-7.82-6.759-6.764-13.513-13.531a43524 43524 0 0 0-19.544-19.567 139363 139363 0 0 1-47.1-47.152l-15.41-15.43-1.918-1.921a140821 140821 0 0 0-31.63-31.66 44231 44231 0 0 1-19.505-19.53q-6.67-6.684-13.345-13.361-3.856-3.856-7.705-7.717a7787 7787 0 0 0-8.339-8.347c-.818-.82-1.635-1.642-2.477-2.488l-2.246-2.241-1.945-1.948C39.052 516.91 39.052 516.91 37 516c1.488-3.457 3.449-5.7 6.1-8.353l2.6-2.618 2.859-2.846 3.005-3.017a4070 4070 0 0 1 8.17-8.168q4.273-4.269 8.541-8.545 7.167-7.171 14.345-14.334a11859 11859 0 0 0 16.595-16.598q7.113-7.126 14.237-14.242 4.258-4.252 8.508-8.511 3.992-4 7.997-7.988 1.472-1.469 2.94-2.942 1.996-2.001 4.004-3.993l2.266-2.263C141 410 141 410 143 410l.719-1.702c1.574-2.824 3.498-4.774 5.781-7.064l2.688-2.695L155 395.75l2.813-2.836 2.687-2.68 2.469-2.462C165 386 165 386 167 386l.719-1.702c1.574-2.824 3.498-4.774 5.781-7.064l2.688-2.695L179 371.75l2.813-2.836 2.687-2.68 2.469-2.462C189 362 189 362 191 362l1-3a107 107 0 0 1 6-4l1.481 1.497q3.35 3.38 6.707 6.753c.768.777 1.537 1.555 2.33 2.355 3.682 3.699 7.321 7.228 11.482 10.395 2.813 2.625 2.813 2.625 5 5v2l3 1v2l1.75.75c2.58 1.433 4.311 3.034 6.25 5.25v2l1.938.813C240 396 240 396 241 399q1.999 1.004 4 2c1.838 1.66 3.584 3.33 5.32 5.092l1.568 1.568q2.553 2.559 5.096 5.13l3.548 3.555a5661 5661 0 0 1 9.311 9.361q4.752 4.78 9.512 9.552Q288.685 444.622 298 454c.834-5.051 1.132-9.93 1.087-15.053l-.008-2.368c-.01-2.604-.028-5.208-.045-7.812l-.024-5.619q-.025-6.038-.057-12.077c-.033-6.366-.053-12.732-.071-19.099l-.01-3.258-.019-6.595c-.043-14.816-.094-29.631-.175-44.447a7879 7879 0 0 1-.108-30.007c-.01-5.29-.028-10.581-.068-15.872-.038-4.973-.052-9.946-.05-14.92a560 560 0 0 0-.035-5.473 483 483 0 0 1-.012-7.474l-.046-2.185c.079-5.67 1.826-7.86 5.641-11.741l2.625-2.687L309 245l1.688-1.812C312 242 312 242 314 242v-2c1.623-1.73 3.289-3.36 5-5q2.238-2.23 4.469-4.469l16.745-16.744a14390 14390 0 0 0 13.794-13.817l2.25-2.256a134325 134325 0 0 1 57.078-57.16l1.476-1.477q11.865-11.878 23.72-23.764 12.176-12.203 24.362-24.395 6.841-6.846 13.675-13.699a9421 9421 0 0 1 12.846-12.86q2.365-2.366 4.724-4.737a2537 2537 0 0 1 6.428-6.43l1.906-1.923C506.772 47 506.772 47 509 47l1-3c2-1 2-1 4-1m-55.937 96.688c-11.506 13.81-9.25 32.88-9.248 49.825-.002 2.982-.02 5.963-.04 8.944-.446 23.42-.446 23.42 10.538 43.293 11.03 10.203 23.673 11.728 38.328 11.613l3.78.002q3.922-.004 7.846-.029 3.994-.026 7.988-.02c3.879.006 7.757-.002 11.636-.015l3.58.003c13.228-.113 23.813-3.03 33.529-12.304 9.671-11.214 9.149-24.568 9.203-38.684l.017-3.566q.014-3.71.02-7.42c.01-3.754.041-7.507.072-11.262q.01-3.625.016-7.252l.038-3.353c-.036-12.614-2.513-23.036-11.182-32.432-7.898-7.53-17.395-10.136-28.138-10.176l-3.49-.02-3.732-.003-3.878-.01q-4.056-.009-8.112-.007c-3.443 0-6.885-.014-10.328-.031-3.31-.014-6.621-.013-9.932-.014l-3.713-.022c-13.705.036-24.984 2.803-34.798 12.94M153 472l-3.062 2.188c-9.833 8.548-17.007 22.325-18.16 35.304a182 182 0 0 0-.153 8.195l.003 2.934c.168 10.24 2.703 18.262 7.372 27.379l1.008 2.113c7.254 13.795 20.64 21.33 34.992 25.887 16.44 3.698 34.405 1.367 48.926-6.988 12.928-8.46 20.438-19.396 25.074-34.012 1.505-7.525 1-15.326 1-23h-59v14h45c-3.397 12.456-3.397 12.456-5.5 16.5l-1.219 2.406c-1.242 2.03-2.61 3.424-4.281 5.094v2l-1.562.688c-2.638 1.328-2.638 1.328-5.438 3.687-9.928 7.247-23.26 8.665-35.125 7.063C171.533 561.169 160.99 555.29 154 546c-2.325-3.882-4.206-7.85-6-12l-1.066-2.016c-4.016-8.283-1.816-18.916.754-27.359 4.591-12.233 12.93-21.22 24.855-26.66 11.63-4.567 24.78-4.352 36.457.035a85 85 0 0 1 7.746 4.988c2.25 1.29 2.25 1.29 4.77.375a49.6 49.6 0 0 0 6.797-4.488l2.113-1.633L232 476c-1.377-4.13-4.173-5.323-7.75-7.437l-2.037-1.211c-8.459-4.855-17.473-7.703-27.213-8.352l-1.957-.156c-14.914-.664-28.18 4.585-40.043 13.156"/><path fill="#EB6B42" d="M665 513c3.14 1.203 5.198 2.957 7.54 5.329l2.044 2.054 2.182 2.222 2.28 2.296q3.607 3.638 7.204 7.287a5375 5375 0 0 0 7.162 7.233q2.228 2.246 4.448 4.5a214 214 0 0 0 12.385 11.559c3.552 3.076 6.86 6.4 10.192 9.707l2.178 2.116 2.069 2.052 1.86 1.833c3.094 3.851 2.6 8.455 2.585 13.187l.006 2.257c.004 2.498 0 4.996-.002 7.494l.005 5.372a7516 7516 0 0 1-.018 20.676q-.022 14.16-.066 28.32-.061 18.107-.04 36.212c.01 8.49-.008 16.98-.046 25.47-.021 5.07-.031 10.14-.012 15.21.017 4.77.001 9.54-.04 14.31q-.014 2.623.01 5.244c.12 14.843.12 14.843-4.318 19.99A77 77 0 0 1 721 768l-2.625 2.75C716 773 716 773 713.25 775.188c-2.325 1.615-2.325 1.615-3.25 3.812h-2l-.687 1.672c-1.7 3.015-3.861 5.14-6.313 7.578l-2.687 2.703C696 793 696 793 694 793l-.75 1.75c-1.433 2.58-3.034 4.311-5.25 6.25h-2l-.687 1.75c-1.65 2.83-3.746 4.233-6.313 6.25l-2.187 2.75L675 814h-2v2c-1.398 1.16-2.8 2.315-4.223 3.445-1.963 1.718-3.592 3.565-5.277 5.555-2.153 2.536-4.287 4.782-6.875 6.875-2.663 1.856-2.663 1.856-3.625 4.125h-2l-.687 1.75c-1.642 2.814-3.749 4.277-6.313 6.25l-1 2h-2v2a236 236 0 0 1-4.363 3.586c-2.001 1.729-3.569 3.73-5.207 5.797-2.339 2.645-5.052 4.843-7.758 7.101-1.78 1.43-1.78 1.43-2.672 3.516h-2l-.812 1.938C617 872 617 872 614 873l-1 3c-1.453 1.395-1.453 1.395-3.25 2.813-2.39 1.965-4.45 3.89-6.375 6.312C601 888 601 888 598.563 889.938c-2.17 1.746-3.685 3.313-5.438 5.437-2.036 2.453-4.1 4.54-6.562 6.563-3.283 2.713-5.967 5.726-8.727 8.96-3.086 3.533-6.285 7.033-9.836 10.102h-2l-.75 1.75c-1.433 2.58-3.034 4.311-5.25 6.25h-2v2a86 86 0 0 1-3.297 3.36 174 174 0 0 0-3.969 3.968l-2.422 2.485-2.324 2.394C544 945 544 945 542 945l-1 3h-2l-.812 1.938C537 952 537 952 534 953l-.875 1.813c-1.492 2.9-3.571 4.144-6.125 6.187a210 210 0 0 0-5.45 6.39L520 969h-2l-1 3h-2l-.812 1.938C513 976 513 976 510 977l-1 3-3 1c-1.622-1.016-1.622-1.016-3.44-2.696l-2.149-1.981c-4.852-4.674-9.627-9.419-14.379-14.193l-3.565-3.57a9939 9939 0 0 1-7.63-7.648q-6.029-6.047-12.064-12.088-12.797-12.816-25.586-25.636-13.834-13.87-27.677-27.732-6-6.008-11.995-12.023-3.721-3.732-7.447-7.46-1.73-1.732-3.456-3.466-2.353-2.363-4.711-4.72l-2.665-2.67c-2.246-2.245-2.246-2.245-5.236-4.117v-2h-2c-1.625-1.375-1.625-1.375-3-3v-2h-2a207 207 0 0 1-4-5 231 231 0 0 0-7.812-7.625C353 829 353 829 353 826a106 106 0 0 1 5.812-6.136l1.872-1.869c2.051-2.044 4.113-4.078 6.175-6.112l4.276-4.256c3.76-3.743 7.529-7.477 11.3-11.21 6.024-5.964 12.035-11.942 18.046-17.92q3.151-3.128 6.308-6.25l3.882-3.852 1.77-1.745c2.453-2.44 4.69-4.818 6.83-7.55L421 757h2v-2c1.574-1.516 1.574-1.516 3.688-3.25 2.665-2.25 5.022-4.45 7.187-7.187L436 742h2l2-4h2v-2c1.27-1.251 1.27-1.251 3.146-2.78 6.522-5.551 12.468-11.69 18.514-17.747l3.951-3.948q4.125-4.123 8.243-8.248a8923 8923 0 0 1 10.516-10.514q4.076-4.07 8.146-8.146 1.938-1.938 3.877-3.873c8.858-8.81 8.858-8.81 17.197-18.108 4.068-4.72 8.554-8.751 13.41-12.636l2-3h2l.613-1.6c1.99-3.444 4.766-6.023 7.58-8.79l1.923-1.912q2.063-2.052 4.133-4.098 3.27-3.233 6.528-6.48c4.61-4.587 9.229-9.167 13.848-13.745q8.04-7.965 16.061-15.95a3143 3143 0 0 1 6.455-6.39l3.924-3.905 1.832-1.8c1.406-1.406 2.76-2.863 4.103-4.33v-2a359 359 0 0 1 5-3 94 94 0 0 0 4.375-4.187l2.34-2.383c2.736-2.91 5.334-5.915 7.875-8.996L621 556h2l2-4h2l.793-1.778c1.276-2.35 2.634-3.896 4.523-5.781l2.043-2.052 2.203-2.182 2.264-2.262q2.367-2.363 4.741-4.718c2.429-2.41 4.85-4.829 7.269-7.248q2.3-2.293 4.601-4.584l2.204-2.2 2.043-2.024 1.798-1.787C663 514 663 514 665 513M514.625 749.75c-10.078 10.822-10.93 23.145-10.75 37.25q.016 2.04.027 4.082c.024 3.306.06 6.612.098 9.918h-26v28h26l-.016 7.587q-.023 12.388-.036 24.775-.007 7.513-.023 15.026-.016 7.245-.02 14.491-.003 2.769-.01 5.538-.01 3.87-.009 7.737l-.01 2.33c-.069 3.886-.069 3.886 1.124 7.516l2.195-.219c13.314-1.278 13.314-1.278 17.805.219v-2l9 2 1-86 1 1c2 .088 4.002.107 6.004.098l3.315-.008 4.244-.028L563 829v-29h-29c1.027-24.226 1.027-24.226 8-31 7.206-5.865 14.977-5.997 24-7v-23l-2 3v-3c-3.603-.23-7.207-.43-10.812-.625l-3.045-.195c-13.774-.709-25.196 2.003-35.518 11.57"/><path fill="#428AC6" d="M514 43v2l4 2v2l1.688.625c2.557 1.52 4 3.35 5.828 5.664 2.278 2.626 4.919 4.79 7.554 7.047C540.14 68.43 540.14 68.43 542 73h2v2l1.688.688c4.008 2.275 6.76 5.625 9.625 9.187 2.55 3.125 5.49 5.637 8.55 8.254 3.541 3.1 7.056 6.307 10.137 9.871v2l1.61.625c3.398 1.955 5.9 4.596 8.64 7.375l1.68 1.656c4.07 4.09 4.07 4.09 4.07 6.344l1.79.806c2.265 1.224 3.76 2.485 5.583 4.293l1.959 1.928 2.115 2.113 2.252 2.228q3.683 3.65 7.352 7.312 2.55 2.537 5.102 5.074 5.343 5.32 10.674 10.648c4.567 4.56 9.149 9.105 13.735 13.646 3.516 3.486 7.02 6.984 10.523 10.485q2.528 2.521 5.068 5.03c2.361 2.335 4.706 4.684 7.047 7.038l2.146 2.1 1.916 1.946 1.685 1.68C670 199 670 199 669.882 200.975c-1.07 2.454-2.355 3.87-4.251 5.76l-2.188 2.205-2.416 2.388-2.533 2.54a2280 2280 0 0 1-6.9 6.874c-2.415 2.4-4.823 4.81-7.232 7.217q-6.077 6.071-12.168 12.128a9364 9364 0 0 0-15.559 15.514q-6.706 6.7-13.421 13.391l-4.287 4.277q-4.021 4.009-8.048 8.012l-2.374 2.37a246 246 0 0 1-12.63 11.697c-2.936 2.585-5.687 5.34-8.44 8.118l-1.826 1.83a3205 3205 0 0 0-3.878 3.896q-3.076 3.095-6.158 6.183-6.54 6.559-13.073 13.124a18423 18423 0 0 1-15.165 15.221q-3.017 3.028-6.028 6.06c-5.459 5.48-10.892 10.915-16.791 15.926-1.862 1.589-3.588 3.28-5.29 5.04l-1.808 1.845q-1.831 1.884-3.656 3.773l-1.785 1.819-1.592 1.642C489 381 489 381 487 381l-.71 1.69c-2.519 4.509-6.557 7.91-10.193 11.529a641 641 0 0 0-4.378 4.424l-2.805 2.806-2.564 2.573c-2.25 1.894-3.479 2.612-6.35 2.978l-.25 1.805c-.975 2.854-2.282 3.637-4.75 5.32-3.023 1.976-3.023 1.976-5 4.875h-2l-1 3h-2v3a157 157 0 0 1-5 3l-2.687 2.688L435 433h-2v3a174 174 0 0 1-5 4 263 263 0 0 0-4 5c-3.11 3.292-6.437 6.299-9.812 9.313-7.948 6.939-7.948 6.939-14.786 14.917L398 471h-2l-2 4h-2l-.812 1.813c-1.187 2.185-2.284 3.6-4.188 5.187h-2l-1 3-2 1-.687 1.75c-1.7 2.915-3.865 4.157-6.633 6.012-2.002 1.476-3.257 3.216-4.68 5.238h-2l-1 3h-2l-.812 1.938C363 506 363 506 360 507c-1.209 2-1.209 2-2 4h-3v-2l-1.647-.664c-3.13-1.777-5.48-4.177-7.994-6.711l-1.597-1.591a1070 1070 0 0 1-3.318-3.329 1044 1044 0 0 0-5.108-5.096l-3.227-3.234-1.552-1.54C327 483.23 327 483.23 327 481l-4-2v-2l-1.773-.792c-3.92-2.127-6.79-5.443-9.914-8.583l-2.088-2.04-1.987-1.983-1.811-1.803c-1.544-1.946-2.02-3.37-2.427-5.799h-2c-.174-5.12.095-8.237 2-13l-2-3c-.23-2.156-.23-2.156-.187-4.5l.019-2.344C301 431 301 431 302 428l-1-2-1 21h-1q-.177-37.2-.26-74.399c-.025-11.515-.06-23.03-.117-34.544q-.076-15.054-.093-30.107c-.007-5.315-.022-10.629-.059-15.943a1811 1811 0 0 1-.037-15.006 568 568 0 0 0-.03-5.507 489 489 0 0 1-.005-7.521l-.044-2.2c.083-5.685 1.817-7.882 5.645-11.773l2.625-2.687L309 245l1.688-1.812C312 242 312 242 314 242v-2c1.623-1.73 3.289-3.36 5-5q2.238-2.23 4.469-4.469l16.745-16.744a14390 14390 0 0 0 13.794-13.817l2.25-2.256a134325 134325 0 0 1 57.078-57.16l1.476-1.477q11.865-11.878 23.72-23.764 12.176-12.203 24.362-24.395 6.841-6.846 13.675-13.699a9421 9421 0 0 1 12.846-12.86q2.365-2.366 4.724-4.737a2537 2537 0 0 1 6.428-6.43l1.906-1.923C506.772 47 506.772 47 509 47l1-3c2-1 2-1 4-1m-55.937 96.688c-11.506 13.81-9.25 32.88-9.248 49.825-.002 2.982-.02 5.963-.04 8.944-.446 23.42-.446 23.42 10.538 43.293 11.03 10.203 23.673 11.728 38.328 11.613l3.78.002q3.922-.004 7.846-.029 3.994-.026 7.988-.02c3.879.006 7.757-.002 11.636-.015l3.58.003c13.228-.113 23.813-3.03 33.529-12.304 9.671-11.214 9.149-24.568 9.203-38.684l.017-3.566q.014-3.71.02-7.42c.01-3.754.041-7.507.072-11.262q.01-3.625.016-7.252l.038-3.353c-.036-12.614-2.513-23.036-11.182-32.432-7.898-7.53-17.395-10.136-28.138-10.176l-3.49-.02-3.732-.003-3.878-.01q-4.056-.009-8.112-.007c-3.443 0-6.885-.014-10.328-.031-3.31-.014-6.621-.013-9.932-.014l-3.713-.022c-13.705.036-24.984 2.803-34.798 12.94"/><path fill="#44A9DB" d="m498.855 135.797 3.449-.017q3.604-.014 7.209-.02c3.645-.01 7.29-.041 10.934-.072q3.518-.01 7.033-.016l3.26-.038c9.697.029 19.87 1.073 27.572 7.491 5.739 6.376 7.8 14.046 7.833 22.44l.02 3.309.003 3.548.01 3.68q.007 3.854.007 7.707c.002 3.912.02 7.825.04 11.738q.005 3.75.005 7.5l.022 3.523c-.028 10.13-.876 20.585-8.045 28.38-9.173 8.462-18.504 9.205-30.562 9.218l-3.326.01q-3.478.007-6.957.007c-3.52.002-7.04.02-10.56.04q-3.39.005-6.782.005l-3.152.022c-11.174-.034-21.208-.91-29.587-8.889-6.12-6.674-8.379-14.01-8.442-23.004l-.03-3.36-.012-3.604-.017-3.741q-.014-3.918-.02-7.835c-.007-3.974-.04-7.948-.072-11.923q-.01-3.813-.016-7.626l-.038-3.575C458.664 159.92 460.39 151 468 143c9.2-7.283 19.662-7.16 30.855-7.203M540 153c-1.07 3.047-1.107 4.637-.187 7.75.982 2.39.982 2.39 3.187 3.25 3.5.333 3.5.333 7 0 2.326-3.489 2.419-4.897 2-9-.971-2.462-.971-2.462-3-4-4.082-.51-5.53-.314-9 2m-32 4v1h6v2l-3.187-1c-6.697-1.756-10.623-.822-16.563 2.563-6.331 3.863-12.135 9.114-14.75 16.273-2.632 11.392-1.944 21.925 4.188 31.976C488.64 216.65 494.927 220.723 503 223c9.609 1.5 19.043.826 27.512-4.164 6.76-4.988 12.536-11.975 13.914-20.457.167-1.724.303-3.45.398-5.18C545 191 545 191 546 188c-.708-9.494-4.845-16.82-12-23-8.063-6.428-15.787-8.444-26-8"/><path fill="#9B44B0" d="M871 464h2c-.74 6.266-2.206 12.281-3.73 18.398l-.827 3.356q-1.312 5.31-2.63 10.621-1.711 6.918-3.418 13.836c-.28 1.133-.56 2.267-.85 3.434-2.904 11.772-5.733 23.561-8.545 35.355h-2v-3l-2.161-.807c-2.92-1.227-5.535-2.666-8.26-4.275l-3.11-1.826-3.219-1.904C827.212 533.04 820.168 528.92 813 525c.999-2.997 1.651-4.027 4-6h2l.646-1.635c1.849-3.228 4.385-5.622 7.026-8.197l1.697-1.681c1.789-1.772 3.584-3.536 5.381-5.3q2.672-2.629 5.338-5.267 1.655-1.637 3.32-3.265c3.327-3.286 6.37-6.699 9.302-10.343L853 482h2l1-3c1.444-1.247 2.893-2.489 4.383-3.68 3.334-2.722 6.167-5.74 8.804-9.132z"/><path fill="#9742AC" d="M864 460c-1.36 3.133-2.788 4.906-5.43 7.049-5.014 4.248-9.568 8.913-14.152 13.611-2.637 2.698-5.29 5.38-7.94 8.067-3.352 3.4-6.7 6.805-10.032 10.225q-4.07 4.174-8.178 8.31a422 422 0 0 0-3.094 3.168 391 391 0 0 1-4.327 4.388l-2.477 2.527C806 519 806 519 803.4 518.835c-4.845-1.686-8.957-3.452-13.15-6.398-7.598-5.255-16.047-9.222-24.25-13.437v-3l3.113-1.139 2.091-.765 4.745-1.736q6.767-2.475 13.535-4.954a9517 9517 0 0 1 26.08-9.517q5.495-1.995 10.988-3.994 2.602-.946 5.206-1.886c9.348-3.38 18.568-6.885 27.646-10.94C862 460 862 460 864 460"/><path fill="#43ABDC" d="M522.191 169.04c6.859 3.643 10.324 8.664 12.809 15.96 1.236 7.73-.644 14.103-4.625 20.688-5.531 5.385-11.68 8.19-19.375 8.312-6.424-.815-12.56-3.017-16.734-8.121-4.971-7.208-6.139-13.126-5.266-21.879 2.122-6.85 6.509-11.744 12.688-15.312 6.675-3.093 13.847-2.569 20.503.351"/><path fill="#38448A" d="m509 360 2 1-152 152c1.598 3.196 2.406 4.655 4.784 7.011l1.717 1.716 1.876 1.846 1.982 1.972a1951 1951 0 0 0 4.26 4.225q3.372 3.334 6.73 6.682 7.131 7.093 14.276 14.173 8.287 8.214 16.557 16.445 3.322 3.3 6.654 6.59l4.045 4.026 1.89 1.858c1.448 1.448 2.844 2.947 4.229 4.456v2l1.75.75c2.58 1.433 4.311 3.034 6.25 5.25v2l1.703.719c2.816 1.57 4.777 3.496 7.047 5.781l2.422 2.406C449 605 449 605 449 607l3 1v2l1.656.67c3.084 1.75 5.38 4.103 7.847 6.606l1.627 1.626c1.769 1.77 3.53 3.547 5.292 5.325l3.682 3.69a6102 6102 0 0 1 9.667 9.716c3.287 3.308 6.58 6.61 9.874 9.914Q501.33 657.266 511 667c-1.663 4.307-4.914 7.21-8.115 10.405l-1.897 1.918c-2.07 2.09-4.148 4.17-6.226 6.251l-4.328 4.348a5919 5919 0 0 1-9.081 9.096 3697 3697 0 0 0-11.621 11.682 3249 3249 0 0 1-8.944 8.969q-2.145 2.15-4.283 4.31a1074 1074 0 0 1-6.002 6.004l-1.778 1.812c-5.718 5.63-10.288 5.355-17.96 5.334l-2.493.006q-4.118.004-8.237-.002-2.934 0-5.87.004-7.91.003-15.82-.008-4.913-.006-9.823-.007c-41.513-.016-83.015-.44-124.522-1.122v-1a485082 485082 0 0 1 84.449-.573l23.387-.158 14.727-.1 6.99-.047q4.457-.03 8.912-.067c6.862-.053 13.716-.052 20.577.072l3.788.054q3.474.053 6.948.16c5.987.118 5.987.118 11.383-2.23 1.875-1.975 1.875-1.975 2.839-4.111h2v-2a65.5 65.5 0 0 1 7.688-7.125c2.504-1.84 2.504-1.84 4.312-4.875h2v-2h2l.75-1.875c1.487-2.529 2.687-2.843 5.25-4.125q1.025-1.987 2-4l3-1 .875-1.812c1.485-2.888 3.584-4.191 6.125-6.188l2.188-2.75L488 688h2v-2c1.875-2.125 1.875-2.125 4-4h2v-2h2v-2c1.875-2.125 1.875-2.125 4-4h2v-2l3-2c-.56-3.472-1.554-4.805-4.312-6.937-3.018-2.44-5.29-5.003-7.688-8.063l-2.25-1.687L491 652v-2l-4-2v-2l-1.824-.797c-2.295-1.269-3.387-2.404-4.988-4.453-2.091-2.55-4.206-4.716-6.75-6.812-3.245-2.677-5.743-5.704-8.438-8.938a143 143 0 0 0-5.645-4.703L458 619v-2c-1.426-1.22-1.426-1.22-3.25-2.375-2.888-1.986-5.446-3.952-7.75-6.625v-2l-1.75-.687c-2.845-1.66-4.187-3.734-6.25-6.313a210 210 0 0 0-6.39-5.45L431 592v-2l-1.937-.812C427 588 427 588 426 585a631 631 0 0 0-5-3 88 88 0 0 1-4.125-4.625c-2.842-3.522-2.842-3.522-6.875-5.375v-4h-3v-2l-1.812-.687C403 564 403 564 401.793 561.855c-2.402-3.825-5.443-6.717-8.668-9.855l-1.855-1.828a1116 1116 0 0 0-3.465-3.399c-2.283-2.243-4.543-4.509-6.805-6.773l-4.199-4.173q-3.239-3.22-6.475-6.446-1.695-1.687-3.391-3.371a2918 2918 0 0 1-4.958-4.936l-1.5-1.484a145 145 0 0 1-7.656-8.273c-4.227-4.877-8.802-9.396-13.39-13.93q-2.368-2.344-4.728-4.693-6.707-6.67-13.429-13.324a4052 4052 0 0 1-8.252-8.197 1192 1192 0 0 0-3.135-3.105q-2.189-2.161-4.365-4.335l-2.506-2.484c-4.05-4.52-4.287-8.013-4.151-13.955l.028-2.337c.034-2.543.082-5.086.13-7.629q.04-2.647.076-5.296c.067-4.643.146-9.286.227-13.928.081-4.739.15-9.478.22-14.217q.211-13.944.454-27.887h1l.031 1.878q.163 9.66.341 19.32.065 3.606.125 7.213.088 5.18.187 10.359l.05 3.267.06 3.033.048 2.671c.075 2.427.075 2.427 1.158 5.259l-1 3a65 65 0 0 0-.187 4.5l-.043 2.344c.093 2.453.093 2.453 2.23 5.156l-.937 1.5c-1.48 3.48-1.687 6.74-2.063 10.5h2c.928 1.4 1.851 2.804 2.751 4.222 2.32 3.302 5.25 6.025 8.124 8.84l1.816 1.815c2.69 2.664 5.37 5.172 8.317 7.557 3.02 2.59 5.461 5.328 8.037 8.345 3.691 4.194 7.684 8.094 11.642 12.034l2.55 2.56 2.462 2.459 2.214 2.21c1.94 1.82 3.926 3.41 6.087 4.958 2.814-2.731 5.469-5.503 8-8.5 3.567-4.194 7.086-7.939 11.688-11 3.058-2.094 4.365-3.816 5.312-7.5h2l1-2h2l1-3c1.383-1.324 1.383-1.324 3.125-2.687 2.567-2.123 4.793-4.265 6.938-6.813 5.078-5.98 10.75-11.409 16.336-16.908a257 257 0 0 0 4.343-4.455C421 446 421 446 424 445l1-3h2l.75-1.875c1.456-2.476 2.628-3.076 5.25-4.125v-3c1.61-1.79 1.61-1.79 3.75-3.625l2.11-1.852c2.116-1.506 3.604-2.1 6.14-2.523v-3c1.375-1.687 1.375-1.687 3-3h2l.75-1.875c1.472-2.503 2.66-2.955 5.25-4.125l1-2 2-1 1-3c1.353-.87 2.708-1.738 4.07-2.594 4.445-3.238 8.151-7.43 11.993-11.344l2.681-2.708q2.478-2.504 4.948-5.014c2.424-2.458 4.864-4.9 7.308-7.34l2.22-2.22z"/><path fill="#42ADDA" d="M514 43v2l4 2v2l1.688.625c2.557 1.52 4 3.35 5.828 5.664 2.278 2.626 4.919 4.79 7.554 7.047C540.14 68.43 540.14 68.43 542 73h2v2l1.688.688c4.008 2.275 6.76 5.625 9.625 9.187 2.55 3.125 5.49 5.637 8.55 8.254 3.541 3.1 7.056 6.307 10.137 9.871v2l1.61.625c3.398 1.955 5.9 4.596 8.64 7.375l1.68 1.656c4.07 4.09 4.07 4.09 4.07 6.344l1.81.825c2.14 1.148 3.53 2.264 5.24 3.97l1.74 1.725 1.875 1.886 2.001 1.991c2.182 2.173 4.356 4.352 6.53 6.533l4.542 4.536q4.757 4.754 9.507 9.518 6.091 6.105 12.2 12.193 4.69 4.681 9.373 9.373a3184 3184 0 0 0 4.5 4.495q3.144 3.139 6.276 6.29l1.886 1.874 1.725 1.742 1.498 1.5c1.46 1.743 2.35 3.488 3.297 5.549l1 2c-3.362-1.44-5.592-3.248-8-6v-2l-1.875-.75c-2.476-1.456-3.076-2.628-4.125-5.25h-2v-2l-1.75-.75c-2.58-1.433-4.311-3.034-6.25-5.25v-2l-1.777-.793c-2.351-1.277-3.907-2.638-5.798-4.523l-2.062-2.043-2.191-2.203-2.27-2.264q-2.37-2.368-4.73-4.741c-2.42-2.43-4.85-4.85-7.281-7.269l-4.594-4.601-2.216-2.204-2.023-2.043-1.794-1.798C603 137 603 137 603 135l-1.809-.821c-2.162-1.163-3.542-2.298-5.25-4.042l-1.67-1.69-1.708-1.76-1.698-1.724a975 975 0 0 1-3.167-3.234c-2.218-2.258-4.46-4.492-6.698-6.729l-58-58-2.77-2.75C518 52 518 52 516.5 50.188c-1.48-1.354-1.48-1.354-3.687-1.649-4.345.712-6.394 3.51-9.313 6.648l-1.684 1.752a587 587 0 0 0-3.29 3.454c-2.615 2.753-5.32 5.414-8.02 8.083-8 7.841-8 7.841-15.506 16.149-1.864 2.207-3.034 3.395-5.562 4.875-3.189 1.962-4.803 4.49-6.965 7.504-2.597 3.519-5.296 6.323-9.098 8.496-2.566 1.37-2.566 1.37-3.937 4.125C448 112 448 112 445.938 112.563L444 113l-.852 1.75c-1.418 2.78-3.223 4.518-5.46 6.688-.76.74-1.519 1.482-2.301 2.246L433 126c-4.264 4.189-8.288 8.558-12.275 13.008-3.324 3.65-6.852 6.89-10.595 10.104-3.878 3.437-7.488 7.143-11.13 10.826l-2.348 2.36Q393.823 165.148 391 168l-2-1 1.999-1.985q9.321-9.262 18.628-18.539 4.785-4.77 9.578-9.53 4.626-4.595 9.24-9.2 1.761-1.757 3.528-3.508 2.474-2.453 4.935-4.919l1.48-1.458c1.823-1.834 3.419-3.464 4.557-5.804 1.696-3.306 4.422-5.7 7.034-8.294l1.853-1.864q3.032-3.042 6.074-6.07l4.215-4.221q4.413-4.418 8.837-8.826 5.678-5.665 11.339-11.347 4.347-4.357 8.704-8.703 2.093-2.091 4.181-4.187 2.914-2.92 5.84-5.825l1.753-1.766C506.771 47 506.771 47 509 47l1-3c2-1 2-1 4-1"/><path fill="#44186F" d="m729.139 289.367 2.102.028c7.287.092 14.575.138 21.863.162l3.599.028q3.32.026 6.64.012l2.944.026 2.555.002c2.619.455 3.504 1.349 5.158 3.375l-1 2-2-2a85 85 0 0 0-7.344-.26l-2.32-.012c-2.581-.01-5.161-.007-7.742-.003l-5.533-.015c-5.02-.014-10.041-.014-15.062-.012q-6.281 0-12.562-.008-14.818-.016-29.635-.006c-10.198.006-20.395-.006-30.593-.027q-13.12-.026-26.242-.02c-5.227.001-10.455-.001-15.683-.015q-7.375-.019-14.752.002-2.707.004-5.416-.009c-2.464-.01-4.927-.002-7.391.01l-2.168-.022c-5.923.065-9.456 2.04-13.55 6.15l-1.627 1.618-1.73 1.753-1.865 1.863a2428 2428 0 0 0-6.055 6.087q-2.106 2.113-4.216 4.225-5.535 5.551-11.062 11.111c-3.763 3.785-7.533 7.563-11.302 11.342Q526.068 347.868 515 359c2.344 5.04 6.032 8.247 10.312 11.688L528 373v2l2.187.625c3.04 1.486 4.518 3.222 6.567 5.871 1.322 1.701 1.322 1.701 3.683 3.442 2.154 1.733 3.642 3.266 5.375 5.375 2.814 3.394 5.954 6.15 9.31 8.996 1.69 1.522 3.09 3.04 4.503 4.816 2.092 2.532 4.21 4.424 6.77 6.457 2.586 2.284 4.717 4.95 6.949 7.574 2.013 2.241 4.3 3.972 6.656 5.844 2.078 2.27 4.052 4.617 6 7l-1 2c-4.917-4.087-9.269-8.32-13.39-13.207-1.991-2.217-4.275-3.953-6.61-5.793v-2h-2v-2l-3-1v-2h-2v-2l-1.725-.74c-2.692-1.491-4.506-3.251-6.676-5.434l-2.608-2.609-2.788-2.819-2.875-2.883a3707 3707 0 0 1-7.536-7.585c-2.564-2.585-5.133-5.163-7.702-7.743A10436 10436 0 0 1 511 360l2.392-2.598c2.975-3.459 5.482-7.155 7.978-10.964 15.579-23.484 36.901-51.841 65.834-58.27 19.451-3.459 39.366-3.225 59.046-2.668l2.137.06c15.149.431 30.262 1.258 45.38 2.308l2.016.14 2.01.14c10.45.717 20.874 1.084 31.346 1.22"/><path fill="#48A8DA" d="M197 355c5.054 4.156 9.702 8.622 14.267 13.304 2.603 2.692 2.603 2.692 5.733 4.696v3c-7.48-3.048-12.78-11.143-18-17-4.418 2.355-7.559 5.32-11 8.875l-1.54 1.566a1175 1175 0 0 0-3.019 3.085c-2.128 2.177-4.285 4.325-6.441 6.474l-2.062 2.063-4.032 4.027a555 555 0 0 0-4.406 4.473c-2.642 2.575-5.405 4.944-8.242 7.3-1.854 1.755-3.443 3.492-5.09 5.43-5.35 6.193-11.193 11.918-16.976 17.7a2095 2095 0 0 0-6.05 6.089q-1.923 1.928-3.849 3.856l-1.824 1.846C120.229 436 120.229 436 118 436l-.727 1.713c-1.542 2.77-3.394 4.648-5.643 6.884l-2.742 2.741-2.97 2.94-3.05 3.04a4166 4166 0 0 1-8.038 7.99q-4.072 4.044-8.137 8.096-7.173 7.144-14.359 14.275Q68.66 487.333 65 491l-12.187 12.188-1.986 1.989a465 465 0 0 1-3.394 3.355c-2.396 2.347-4.156 4.334-5.433 7.468l1.938 1.938 1.363 1.367a814 814 0 0 0 3.93 3.89l2.394 2.367c.755.744 1.51 1.488 2.29 2.254A55 55 0 0 1 59 534c-3.644-.574-5.284-1.938-7.82-4.562l-2.121-2.165L46.875 525a2100 2100 0 0 0-4.32-4.437l-1.923-1.997c-1.564-1.655-1.564-1.655-3.632-2.566 1.488-3.457 3.449-5.7 6.1-8.353l2.6-2.618 2.859-2.846 3.005-3.017a4070 4070 0 0 1 8.17-8.168q4.273-4.269 8.541-8.545 7.167-7.171 14.345-14.334a11859 11859 0 0 0 16.595-16.598q7.113-7.126 14.237-14.242 4.258-4.252 8.508-8.511 3.992-4 7.997-7.988 1.472-1.469 2.94-2.942 1.996-2.001 4.004-3.993l2.266-2.263C141 410 141 410 143 410l.719-1.702c1.574-2.824 3.498-4.774 5.781-7.064l2.688-2.695L155 395.75l2.813-2.836 2.687-2.68 2.469-2.462C165 386 165 386 167 386l.719-1.702c1.574-2.824 3.498-4.774 5.781-7.064l2.688-2.695L179 371.75l2.813-2.836 2.687-2.68 2.469-2.462C189 362 189 362 191 362l1-3a95 95 0 0 1 5-4"/><path fill="#CE4D4A" d="M665 513c3.14 1.203 5.198 2.957 7.54 5.329l2.044 2.054 2.182 2.222 2.28 2.296q3.607 3.638 7.204 7.287a5375 5375 0 0 0 7.162 7.233q2.228 2.246 4.448 4.5a214 214 0 0 0 12.385 11.559c3.552 3.076 6.86 6.4 10.192 9.707l2.178 2.116 2.069 2.052 1.86 1.833c3.343 4.161 2.524 9.365 2.386 14.436l-.059 2.632a3172 3172 0 0 1-.21 8.603q-.072 2.985-.14 5.97-.183 7.85-.38 15.703-.194 8.013-.381 16.027-.372 15.72-.76 31.441h-1c-1.033-7.712-1.04-15.347-.978-23.107.029-6.393-.08-12.773-.276-19.163l-.074-2.465q-.188-6.129-.404-12.257c-.242-7.317-.379-14.461.48-21.752.657-5.875.865-10.855-1.748-16.256-2.06-2.205-2.06-2.205-4.703-4.395-6.27-5.53-12.19-11.388-18.094-17.304l-1.458-1.46q-4.487-4.493-8.966-8.993-3.86-3.874-7.724-7.744A20183 20183 0 0 1 667 516a913 913 0 0 0-3.871 2.844l-2.178 1.6c-2.4 1.914-4.074 4.134-5.951 6.556-1.666 1.513-3.378 2.951-5.121 4.375-2.419 2.092-4.633 4.349-6.879 6.625q-1.468 1.47-2.937 2.938l-1.524 1.523-4.601 4.601-1.486 1.49a562 562 0 0 1-4.245 4.175c-2.267 2.135-2.267 2.135-3.52 4.648-2.767 4.305-6.957 8.773-11.94 10.328L611 568c6.642-9.122 6.642-9.122 10-12h2l2-4h2l.793-1.778c1.276-2.35 2.634-3.896 4.523-5.781l2.043-2.052 2.203-2.182 2.264-2.262q2.367-2.363 4.741-4.718c2.429-2.41 4.85-4.829 7.269-7.248q2.3-2.293 4.601-4.584l2.204-2.2 2.043-2.024 1.798-1.787C663 514 663 514 665 513"/><path fill="#232A63" d="m509 668 2 1q-12.956 13.096-25.948 26.155-6.034 6.064-12.05 12.144a3887 3887 0 0 1-11.631 11.71 1321 1321 0 0 0-4.434 4.477c-2.064 2.093-4.14 4.173-6.219 6.25l-1.844 1.888c-5.685 5.63-10.27 5.526-18.108 5.505l-2.494.006q-4.118.004-8.237-.002-2.934 0-5.87.004-7.91.003-15.82-.008-4.913-.006-9.823-.007c-41.513-.016-83.015-.44-124.522-1.122v-1a485082 485082 0 0 1 84.449-.573l23.387-.158 14.727-.1 6.99-.047q4.457-.03 8.912-.067c6.862-.053 13.716-.052 20.577.072l3.788.054q3.474.053 6.948.16c5.987.118 5.987.118 11.383-2.23 1.875-1.975 1.875-1.975 2.839-4.111h2v-2a65.5 65.5 0 0 1 7.688-7.125c2.504-1.84 2.504-1.84 4.312-4.875h2v-2h2l.75-1.875c1.487-2.529 2.687-2.843 5.25-4.125q1.025-1.987 2-4l3-1 .875-1.812c1.485-2.888 3.584-4.191 6.125-6.188l2.188-2.75L488 688h2v-2c1.875-2.125 1.875-2.125 4-4h2v-2h2v-2c1.875-2.125 1.875-2.125 4-4h2v-2a105 105 0 0 1 5-4"/><path fill="#3C66A9" d="M300 255h1l1 81h1q.035 15.191.052 30.383.007 7.055.023 14.11.016 6.817.02 13.636.003 2.591.01 5.183c.027 8.62-.009 17.12-1.105 25.688h-1l-1 22h-1q-.035-37.329-.052-74.658-.007-17.33-.023-34.663-.015-15.1-.02-30.2 0-8-.01-16a9123 9123 0 0 1-.008-15.043q0-2.769-.006-5.538a2459 2459 0 0 1-.001-7.527l-.01-2.243c.016-5.014.016-5.014 1.13-6.128"/><path fill="#F67134" d="M374 848c6.088 4.03 10.799 8.842 15.605 14.316 4.26 4.774 8.556 8.654 13.82 12.254L405 876v3h3l.875 1.938c.953 2.214.953 2.214 3.125 3.062v2l1.61.625c3.398 1.955 5.9 4.596 8.64 7.375l1.68 1.656c4.07 4.09 4.07 4.09 4.07 6.344l1.777.824c5.54 2.93 9.044 6.878 12.223 12.176 1.802 1.639 3.658 3.165 5.574 4.668L449 921v2l1.688.688c2.954 1.676 4.98 3.858 7.312 6.312a321 321 0 0 0 3.875 3.813C464 936 464 936 465.75 938.313c2.528 3.02 5.312 5.44 8.3 7.992 2.436 2.117 4.669 4.414 6.95 6.695l3 2.438c2.546 2.174 4.507 4.343 6.578 6.953 2.276 2.575 4.913 4.709 7.555 6.898C500 971 500 971 501.512 973.164c1.497 2.245 1.497 2.245 5.176 2.586L510 976v-2l1.938-.312L514 973l1-3h2l1-3h2v2h-2l-1 3h-2l-.812 1.938C513 976 513 976 510 977l-1 3-3 1c-1.622-1.016-1.622-1.016-3.44-2.696l-2.149-1.981c-4.852-4.674-9.627-9.419-14.379-14.193l-3.565-3.57a9939 9939 0 0 1-7.63-7.648q-6.029-6.047-12.064-12.088-12.797-12.816-25.586-25.636-13.834-13.87-27.677-27.732-6-6.008-11.995-12.023-3.721-3.732-7.447-7.46-1.73-1.732-3.456-3.466-2.353-2.363-4.711-4.72l-2.665-2.67c-2.246-2.245-2.246-2.245-5.236-4.117z"/><path fill="#395499" d="m509 360 2 1-135 135-3-2 1.46-.918c3.91-2.592 6.318-4.328 7.54-9.082h2l1-2h2l1-3c1.383-1.324 1.383-1.324 3.125-2.687 2.567-2.123 4.793-4.265 6.938-6.813 5.078-5.98 10.75-11.409 16.336-16.908a257 257 0 0 0 4.343-4.455C421 446 421 446 424 445l1-3h2l.75-1.875c1.456-2.476 2.628-3.076 5.25-4.125v-3c1.61-1.79 1.61-1.79 3.75-3.625l2.11-1.852c2.116-1.506 3.604-2.1 6.14-2.523v-3c1.375-1.687 1.375-1.687 3-3h2l.75-1.875c1.472-2.503 2.66-2.955 5.25-4.125l1-2 2-1 1-3c1.353-.87 2.708-1.738 4.07-2.594 4.445-3.238 8.151-7.43 11.993-11.344l2.681-2.708q2.478-2.504 4.948-5.014c2.424-2.458 4.864-4.9 7.308-7.34l2.22-2.22z"/><path fill="#582A83" d="M741.735 289.235q3.906.05 7.813.086c3.568.035 7.135.09 10.703.152l3.193.024 2.905.064 2.52.037c2.584.487 3.487 1.4 5.131 3.402l-1 2-2-2c-2.212-.311-2.212-.311-4.81-.272l-3.086-.03-3.404-.001-3.581-.026a2588 2588 0 0 0-9.799-.043c-3.478-.012-6.956-.036-10.434-.058q-9.99-.061-19.983-.103c-13.1-.056-26.2-.132-39.299-.208l-6.474-.037c-30.048-.168-60.088-.642-90.13-1.222v-1q24.288-.236 48.575-.443a17661 17661 0 0 0 22.578-.205c30.194-.295 60.388-.52 90.582-.117"/><path fill="#3CA1CD" d="m507 49 2 1-10.487 10.487-4.01 4.013a1504 1504 0 0 1-5.589 5.55c-7.178 7.08-7.178 7.08-13.914 14.575-1.864 2.207-3.034 3.395-5.562 4.875-3.189 1.962-4.803 4.49-6.965 7.504-2.597 3.519-5.296 6.323-9.098 8.496-2.566 1.37-2.566 1.37-3.937 4.125C448 112 448 112 445.938 112.563L444 113l-.852 1.75c-1.418 2.78-3.223 4.518-5.46 6.688-.76.74-1.519 1.482-2.301 2.246L433 126c-4.264 4.189-8.288 8.558-12.275 13.008-3.324 3.65-6.852 6.89-10.595 10.104-3.878 3.437-7.488 7.143-11.13 10.826l-2.348 2.36Q393.823 165.148 391 168l-2-1 1.999-1.985q9.321-9.262 18.628-18.539 4.785-4.77 9.578-9.53 4.626-4.595 9.24-9.2 1.761-1.757 3.528-3.508 2.474-2.453 4.935-4.919l1.48-1.458c2.457-2.472 4.178-4.695 5.612-7.861a137 137 0 0 1 5.305-5.57l1.577-1.583q1.648-1.65 3.303-3.293c1.684-1.673 3.357-3.357 5.03-5.042q1.605-1.605 3.215-3.207l1.509-1.522c3.617-3.57 3.617-3.57 5.996-4.716 2.358-1.218 3.864-2.625 5.732-4.507l2.122-2.123 2.258-2.289 2.337-2.345c2.46-2.471 4.913-4.95 7.366-7.428l5.004-5.031Q500.884 55.179 507 49"/><path fill="#38539A" d="M190 666c4.92 4.126 9.55 8.414 14.07 12.973.644.645 1.289 1.29 1.952 1.956q3.055 3.064 6.103 6.134l4.113 4.126a9099 9099 0 0 1 9.208 9.248 1632 1632 0 0 1 4.33 4.377c2.166 2.22 2.166 2.22 4.599 3.999 3.037 2.53 5.45 5.352 7.977 8.382 1.714 2.023 1.714 2.023 4.648 3.805v2l1.75.188c3.754 1.355 5.549 4.567 7.456 7.953 1.716 2.15 1.716 2.15 4.753 2.333l3.685-.036 2.047-.003c2.256-.008 4.51-.044 6.766-.08q2.399-.015 4.797-.025 5.117-.027 10.234-.085c7.995-.09 15.99-.121 23.986-.158q4.027-.02 8.053-.043c15.79-.084 31.563.114 47.348.456l3.496.074q9.315.196 18.629.426v1l-1.957.013q-23.56.155-47.12.326-11.395.085-22.788.158-9.93.065-19.86.14-5.26.04-10.517.072-5.87.036-11.737.086l-3.527.017-3.23.03-2.804.02c-2.445.058-2.445.058-4.687.706-1.773.432-1.773.432-3.41-.503l-1.717-1.617-2.12-1.98L252 730l-1.493-1.451c-4.319-4.206-8.587-8.463-12.85-12.725l-4.137-4.126a10666 10666 0 0 1-8.613-8.605 6686 6686 0 0 0-11.07-11.04q-4.261-4.246-8.513-8.5-2.04-2.04-4.086-4.073a1922 1922 0 0 1-5.674-5.673l-1.718-1.701C190 668.228 190 668.228 190 666"/><path fill="#F35223" d="M503 771h1v30h-26l1 23h1v5h24v85h-1l-.031-2.928q-.147-13.66-.308-27.323-.083-7.023-.158-14.047-.072-6.779-.156-13.557-.03-2.586-.056-5.171-.037-3.623-.086-7.246l-.017-2.156c-.054-3.64-.332-7.03-1.188-10.572q-4.375-.04-8.75-.062l-2.5-.026-2.422-.01-2.222-.016c-2.132.032-2.132.032-4.189.745C479 832 479 832 476 830c-.372-2.95-.372-2.95-.363-6.687l-.002-1.995q.004-2.088.029-4.176c.023-2.134.02-4.266.014-6.4.043-10.463.043-10.463 2.322-12.742 2.522-.135 2.522-.135 5.664.023l3.061.139 3.9.213L503 799z"/><path fill="#2E226A" d="M300 376h1l.031 1.878q.163 9.66.341 19.32.065 3.606.125 7.213.088 5.18.187 10.359l.05 3.267.06 3.033.048 2.671c.075 2.427.075 2.427 1.158 5.259l-1 3a65 65 0 0 0-.187 4.5l-.043 2.344c.093 2.453.093 2.453 2.23 5.156l-.937 1.5c-1.48 3.48-1.687 6.74-2.063 10.5h2c.928 1.4 1.851 2.804 2.751 4.222 2.32 3.302 5.25 6.025 8.124 8.84l1.816 1.815c2.69 2.664 5.37 5.172 8.317 7.557 3.02 2.59 5.461 5.328 8.037 8.345 3.691 4.194 7.684 8.094 11.642 12.034l2.55 2.56 4.676 4.67c1.94 1.82 3.926 3.41 6.087 4.957 2.835-2.751 5.509-5.547 8.063-8.562 4.665-5.48 4.665-5.48 6.937-7.438h3c-1.393 3.152-3.025 5.262-5.477 7.672l-2.03 2.012-2.118 2.066-2.14 2.113Q360.623 511.44 358 514c-3.879-1.593-6.34-4.087-9.288-7.029l-1.558-1.548a1559 1559 0 0 1-5.068-5.071l-3.533-3.528q-3.699-3.695-7.389-7.4a3620 3620 0 0 0-9.476-9.468 4035 4035 0 0 1-7.288-7.289 1919 1919 0 0 0-3.495-3.49q-2.444-2.438-4.876-4.89l-2.803-2.807c-4.186-4.664-4.502-8.034-4.361-14.186l.028-2.337c.034-2.543.082-5.086.13-7.629q.04-2.647.076-5.296c.067-4.643.146-9.286.227-13.928.081-4.739.15-9.478.22-14.217q.211-13.944.454-27.887"/><path fill="#F77637" d="m535 827 1 3c2.015.733 2.015.733 4 1l-2 2a79 79 0 0 0-.195 7.108l.009 2.218q.011 2.39.036 4.777c.025 2.522.038 5.044.048 7.566.027 6.269.075 12.537.123 18.805q.06 7.934.09 15.869c.014 2.48.039 4.96.064 7.441q.012 2.295.02 4.59l.032 2.079c0 4.519-.723 7.034-2.227 11.547h-28l2-3c2.715-.293 2.715-.293 5.938-.187l3.214.082L522 912q3.03 0 6.063-.062C531 912 531 912 533 913l.031-3.22q.147-14.988.308-29.976.084-7.707.158-15.413.072-7.43.156-14.86.031-2.843.056-5.684.037-3.965.086-7.93l.017-2.398c.074-5.405.074-5.405 1.188-6.519"/><path fill="#3E95C4" d="m141 410 2 1L40 514c2.744 3.43 4.698 5.763 7.938 8.438 3.457 2.949 6.247 6.002 9.062 9.562l2 2c-3.644-.574-5.284-1.938-7.82-4.562l-2.121-2.165L46.875 525a2100 2100 0 0 0-4.32-4.437l-1.923-1.997c-1.564-1.655-1.564-1.655-3.632-2.566 1.489-3.463 3.454-5.7 6.113-8.353l2.609-2.618 2.868-2.846 3.016-3.017q4.092-4.09 8.194-8.168 4.284-4.269 8.56-8.545 8.101-8.09 16.213-16.17 9.233-9.202 18.457-18.414A57303 57303 0 0 1 141 410"/><path fill="#F56E39" d="M413 766c0 4.107-1.64 5.198-4.375 8.188l-2.46 2.73C404 779 404 779 402 779v2h-2l-.812 1.938C398 785 398 785 395 786a178 178 0 0 0-2 4c-2 2.25-2 2.25-4 4h-2l-.687 1.688c-1.699 2.992-3.82 4.928-6.313 7.312-4.63 4.523-9.046 9.136-13.266 14.043-2.77 3.127-5.745 6.04-8.734 8.957l-2 2c4.764 5.568 4.764 5.568 9.875 10.813C368 841 368 841 369 844h-2a207 207 0 0 1-4-5 231 231 0 0 0-7.812-7.625C353 829 353 829 353 826a96 96 0 0 1 5.508-5.848l1.773-1.775c1.941-1.939 3.892-3.867 5.844-5.795q2.019-2.01 4.036-4.023 5.317-5.298 10.653-10.579c3.625-3.594 7.24-7.196 10.858-10.798Q402.325 776.578 413 766"/><path fill="#E05945" d="m610 568 3 1-2.16 2.125c-6.488 6.411-6.488 6.411-12.59 13.188-2.607 3.06-5.397 5.57-8.492 8.125-3.755 3.337-6.932 7.277-10.063 11.195-3.55 4.433-7.614 8.832-12.758 11.394-2.877 1.445-4.726 3.654-6.937 5.973q-2.495 2.505-5 5l-2.895 2.895L544 637l-2-1 2.202-2.188q10.25-10.19 20.485-20.395 5.261-5.248 10.533-10.486 5.083-5.051 10.153-10.115a2007 2007 0 0 1 3.886-3.863q2.714-2.695 5.417-5.402l1.643-1.621c2.822-2.493 2.822-2.493 3.681-5.93l5-3a140 140 0 0 0 5-5"/><path fill="#5E2C85" d="M512 358c3.69 1.23 3.356 1.712 5 5 2.597 2.813 5.335 5.294 8.313 7.688L528 373v2l2.188.625c3.04 1.486 4.517 3.222 6.566 5.871 1.322 1.701 1.322 1.701 3.683 3.442 2.154 1.733 3.642 3.266 5.375 5.375 2.814 3.394 5.954 6.15 9.31 8.996 1.69 1.522 3.09 3.04 4.503 4.816 2.092 2.532 4.21 4.424 6.77 6.457 2.586 2.284 4.717 4.95 6.949 7.574 2.013 2.241 4.3 3.972 6.656 5.844 2.078 2.27 4.052 4.617 6 7l-1 2c-4.917-4.087-9.269-8.32-13.39-13.207-1.991-2.217-4.275-3.953-6.61-5.793v-2h-2v-2l-3-1v-2h-2v-2l-1.725-.74c-2.692-1.491-4.506-3.251-6.676-5.434l-2.608-2.609-2.788-2.819-2.875-2.883a3707 3707 0 0 1-7.536-7.585c-2.564-2.585-5.133-5.163-7.702-7.743A10436 10436 0 0 1 511 360z"/><path fill="#3B63A4" d="m509 360 2 1q-13.382 13.452-26.782 26.886-6.223 6.237-12.436 12.483-5.994 6.027-12.002 12.04a2804 2804 0 0 0-4.579 4.601 2522 2522 0 0 1-6.413 6.429l-1.911 1.933-1.776 1.768-1.531 1.536c-1.749 1.475-3.516 2.333-5.57 3.324a174 174 0 0 0-5 4c0-3 0-3 1.61-4.79l2.14-1.835 2.11-1.852c2.116-1.506 3.604-2.1 6.14-2.523v-3c1.375-1.687 1.375-1.687 3-3h2l.75-1.875c1.472-2.503 2.66-2.955 5.25-4.125l1-2 2-1 1-3c1.353-.87 2.708-1.738 4.07-2.594 4.445-3.238 8.151-7.43 11.993-11.344l2.681-2.708q2.478-2.504 4.948-5.014c2.424-2.458 4.864-4.9 7.308-7.34l2.22-2.22z"/><path fill="#3EA6D1" d="M514 43v2l4 2v2l1.688.625c2.557 1.52 4 3.35 5.828 5.664 2.278 2.626 4.919 4.79 7.554 7.047C536.855 65.6 539.88 68.465 542 73c-3.68-3.08-7.19-6.15-10.5-9.625-2.227-2.282-4.23-3.918-7.062-5.375-3.704-2.155-5.32-4.167-7.59-7.707-2.542-1.779-4.592-1.506-7.582-1.065-4.691 1.598-7.791 5.456-11.141 8.963l-2.454 2.485c-2.574 2.613-5.123 5.249-7.671 7.886a4066 4066 0 0 1-5.238 5.334Q476.354 80.422 470 87c0-3 0-3 1.391-4.765l1.974-1.972 2.225-2.244 2.433-2.406 2.475-2.476q2.595-2.59 5.2-5.171c2.668-2.644 5.322-5.301 7.974-7.96q2.518-2.51 5.039-5.018l2.421-2.424 2.244-2.215 1.979-1.965C507 47 507 47 509 47l1-3c2-1 2-1 4-1"/><path fill="#F36933" d="M550.517 736.794c2.073.019 4.146.02 6.22.02 10.122.045 10.122.045 11.263 1.186.1 1.842.13 3.687.133 5.531l.004 3.395-.012 3.574.012 3.574-.008 6.533C568 763 568 763 567 764c-2.353.073-4.708.084-7.062.063l-3.91-.028L553 764c3.062-1.784 5.22-2.229 8.75-2.125l2.422.055L566 762q-.211-4.438-.437-8.875l-.12-2.55-.127-2.442-.11-2.254c-.106-1.968-.106-1.968-1.206-3.879l-2-1-1-1c-15.717-2.1-28.277-1.185-42 7-1.327.68-2.657 1.352-4 2v-2c2.273-1.875 2.273-1.875 5.375-4l3.023-2.125c8.194-4.752 17.949-4.166 27.119-4.08"/><path fill="#0D1470" d="m509 668 2 1a10455 10455 0 0 1-25.948 26.207c-4.023 4.05-8.042 8.103-12.05 12.168q-5.8 5.88-11.631 11.729-2.224 2.236-4.434 4.488a953 953 0 0 1-6.219 6.258l-1.844 1.898c-4.216 4.165-4.216 4.165-7.794 4.636L439 736l1-2 1.813-.312c3.132-.985 4.227-3.14 6.187-5.688h2v-2a65.5 65.5 0 0 1 7.688-7.125c2.504-1.84 2.504-1.84 4.312-4.875h2v-2h2l.75-1.875c1.487-2.529 2.687-2.843 5.25-4.125q1.025-1.987 2-4l3-1 .875-1.812c1.485-2.888 3.584-4.191 6.125-6.188l2.188-2.75L488 688h2v-2c1.875-2.125 1.875-2.125 4-4h2v-2h2v-2c1.875-2.125 1.875-2.125 4-4h2v-2a105 105 0 0 1 5-4"/><path fill="#BC4351" d="M727 573c2.254 4.508 2.198 7.748 2.043 12.624l-.058 2.632c-.066 2.868-.146 5.736-.227 8.603q-.073 2.985-.143 5.97c-.126 5.234-.264 10.468-.405 15.703-.141 5.342-.27 10.684-.401 16.027Q727.42 650.279 727 666h-1c-1.033-7.712-1.04-15.347-.978-23.107.029-6.393-.08-12.773-.276-19.163l-.074-2.465q-.188-6.129-.404-12.257C724 600.921 723.94 593.05 725 585h1z"/><path fill="#872437" d="M665 513c3.082 1.372 5.175 2.934 7.54 5.329l2.044 2.054 2.182 2.222 2.28 2.296q3.607 3.638 7.204 7.287a5375 5375 0 0 0 7.162 7.233q2.228 2.246 4.448 4.5c5.729 5.784 11.598 11.285 18.202 16.06 5.52 4.325 10.207 8.31 11.613 15.447.63 8.216.16 16.385-.675 24.572h-1l-.06-2.124c-.096-3.188-.205-6.376-.315-9.563-.03-1.103-.062-2.206-.094-3.342l-.117-3.233-.095-2.967c-.663-5.757-2.68-8.446-7.03-12.17-6.25-5.51-12.14-11.359-18.016-17.265l-2.912-2.922q-4.496-4.516-8.986-9.039-5.273-5.31-10.556-10.612-2.099-2.11-4.192-4.223l-2.551-2.562-2.246-2.261c-1.728-1.785-1.728-1.785-3.83-2.717z"/><path fill="#9E44B1" d="M803 529c3.462 1.385 6.211 2.584 9.313 4.5l2.113 1.281L816 536v2h-2l-.809 1.773c-1.21 2.263-2.545 3.946-4.254 5.852-1.6 1.793-2.86 3.222-3.937 5.375h-3z"/><path fill="#373377" d="M464 622c3.49 1.495 5.735 3.492 8.401 6.174l2.608 2.609 2.788 2.819 2.875 2.883a3707 3707 0 0 1 7.536 7.585c2.564 2.585 5.133 5.163 7.702 7.742A10436 10436 0 0 1 511 667l-3 2-1.102-1.355c-3.366-4.05-6.809-7.339-10.898-10.645-2.875-2.687-2.875-2.687-5-5v-2l-4-2v-2l-1.824-.797c-2.295-1.269-3.387-2.404-4.988-4.453-2.074-2.528-4.162-4.676-6.688-6.75-3.569-2.957-6.825-6.199-9.5-10z"/><path fill="#394F93" d="M356 514c4.136 1.63 6.9 4.632 9.962 7.735l1.775 1.774c1.931 1.932 3.855 3.872 5.779 5.811l4.018 4.027q5.284 5.297 10.554 10.604 5.386 5.413 10.78 10.819Q409.44 565.376 420 576l-2 2-2.312-2.437c-2.482-2.731-2.482-2.731-5.688-3.563v-4h-3v-2l-1.812-.687C403 564 403 564 401.793 561.855c-2.402-3.825-5.443-6.717-8.668-9.855l-1.855-1.828a1116 1116 0 0 0-3.465-3.399c-2.283-2.243-4.543-4.509-6.805-6.773l-4.378-4.352a7514 7514 0 0 1-6.68-6.651l-3.536-3.515q-2.559-2.543-5.113-5.091l-1.61-1.594A211 211 0 0 1 356 515z"/><path fill="#3A9BC7" d="m441 113 2 1-1.965 1.952q-9.21 9.148-18.403 18.313-4.725 4.71-9.46 9.412-4.578 4.545-9.142 9.103a1569 1569 0 0 1-3.475 3.453c-5.775 5.724-11.376 11.417-16.218 17.98-1.737 2.321-3.69 4.339-5.774 6.35l-2.06 2.003L375 184l-2-1 2.117-2.047 2.758-2.703 2.742-2.672c2.368-2.287 2.368-2.287 3.196-4.39 1.674-3.086 4.078-5.34 6.555-7.783l1.656-1.657a1927 1927 0 0 1 5.421-5.389q1.88-1.873 3.758-3.75 4.942-4.927 9.894-9.843 5.05-5.024 10.094-10.055Q431.088 122.848 441 113"/><path fill="#9440B0" d="m667 512 1.426 1.242 1.886 1.633 1.864 1.617c1.959 1.672 1.959 1.672 4.824 3.508v2l4 2v2h2l1.625 2.063c1.948 2.409 3.688 4.15 6.023 6.127 4.31 3.725 8.341 7.671 12.352 11.712l2.185 2.19q3.41 3.42 6.815 6.846l4.66 4.673q5.674 5.69 11.34 11.389c-3 0-3 0-4.958-1.633l-2.21-2.277-2.459-2.502-2.56-2.65q-2.487-2.553-4.981-5.098l-2.227-2.301a145 145 0 0 0-6.434-5.88c-4.072-3.532-7.92-7.246-11.734-11.054l-2.05-2.04a3258 3258 0 0 1-4.235-4.228 2403 2403 0 0 0-6.523-6.483l-4.129-4.124-1.979-1.957-1.802-1.811-1.596-1.592C667 514 667 514 667 512"/><path fill="#49BAE9" d="M449 107c0 3 0 3-1.5 4.688L446 113l-2-1zm-6 6c0 3 0 3-2.012 5.305l-2.675 2.57-2.637 2.555L433 126c-4.267 4.186-8.289 8.558-12.275 13.008-3.324 3.65-6.852 6.89-10.595 10.104-3.878 3.437-7.488 7.143-11.13 10.826l-2.348 2.36Q393.823 165.148 391 168l-2-1z"/><path fill="#953D99" d="M728 573c5.506 4.482 10.457 9.4 15.38 14.505 2.754 2.814 5.014 4.839 8.62 6.495a84 84 0 0 1 4.25 4l2.14 2.125C760 602 760 602 760 604l3 1q1.53 1.47 3 3l2 1 2 4 2 1v2c-3.265-.582-4.906-1.53-7.234-3.871l-1.739-1.74-1.777-1.827-1.824-1.814C755 602.268 755 602.268 755 600l-1.661-.678c-3.041-1.72-5.321-4.018-7.76-6.478l-1.53-1.524a981 981 0 0 1-3.177-3.188 957 957 0 0 0-4.892-4.878l-3.09-3.098-1.486-1.474C728 575.23 728 575.23 728 573"/><path fill="#41AFDB" d="M526 59c4.036 1.594 6.637 4.48 9.563 7.563C539.226 70.56 539.226 70.56 544 73v2l1.688.688c4.008 2.275 6.76 5.625 9.625 9.187 2.55 3.124 5.486 5.637 8.55 8.246 3.549 3.12 6.837 6.5 10.137 9.879l-1 2-1.206-1.238a1777 1777 0 0 0-5.481-5.574l-1.897-1.948-1.865-1.885-1.698-1.73c-1.828-1.714-1.828-1.714-4.162-2.936-3.588-2.252-6.337-5.068-9.304-8.072l-1.862-1.863q-1.936-1.941-3.865-3.888a1801 1801 0 0 0-5.951-5.971l-3.76-3.778-1.808-1.812C526 60.116 526 60.116 526 59"/><path fill="#2B377A" d="M300 376h1l.031 1.878q.163 9.66.341 19.32.065 3.606.125 7.213.088 5.18.187 10.359l.05 3.267.06 3.033.048 2.671c.075 2.427.075 2.427 1.158 5.259l-1 3a65 65 0 0 0-.187 4.5l-.043 2.344c.093 2.453.093 2.453 2.23 5.156l-.937 1.5c-1.48 3.48-1.687 6.74-2.063 10.5l-2-1z"/><path fill="#4293CA" d="m151 470 2 1c-1.57 3.854-4.084 6.084-7 9-5.942 6.848-10.181 14.735-12.125 23.625L133 507l-3 1c.894-15.487 9.997-27.768 21-38"/><path fill="#3E85BE" d="m190.813 473.938 3.519.027L197 474l1 3-1.984-.105c-13.157-.39-26.07 3.153-36.016 12.105l-1-3c9.372-8.238 19.313-12.189 31.813-12.062"/><path fill="#4290C7" d="m130 510 2 1 .078 3.48c.325 9.905 1.547 18.155 4.922 27.52.75 2.227.75 2.227 1 4l-2 2c-6.183-12.202-7.763-23.406-7-37z"/><path fill="#3C3169" d="M391 734q9.771-.037 19.543-.055 3.327-.008 6.653-.02c3.182-.013 6.364-.018 9.546-.023l3.018-.015h2.79l2.463-.007C437 734 437 734 439 735v2h-41v-2h-7z"/><path fill="#4B2A7B" d="M512 358c3.69 1.23 3.356 1.712 5 5 2.597 2.813 5.335 5.294 8.313 7.688L528 373v2l2.188.625c3.035 1.484 4.513 3.206 6.546 5.863 1.37 1.754 1.37 1.754 4.016 3.575 2.63 2.265 2.967 3.541 3.25 6.937a192 192 0 0 1-13.371-12.273l-1.719-1.723q-2.677-2.687-5.347-5.379l-3.663-3.676q-4.454-4.47-8.9-8.949z"/><path fill="#3D1366" d="M550 320c0 4.528-3.075 6.653-6.062 9.75l-1.89 1.988A1015 1015 0 0 1 528 346.125l-1.848 1.862A143 143 0 0 1 515 358l-2-1z"/><path fill="#3EA8D6" d="M485 126c-2.263 2.263-2.897 2.288-5.937 2.75-10.479 2.207-17.612 7.932-24.063 16.25l-3-1c2.977-7.372 2.977-7.372 6.75-9.687L462 133a158 158 0 0 0 4.063-2.562c6.109-3.868 11.703-6.298 18.937-4.438"/><path fill="#9742AA" d="M887 452c1.738 5.213-.51 10.639-1.75 15.879-.497 2.11-.974 4.224-1.45 6.34q-.468 2.016-.94 4.031l-.861 3.703c-.957 2.919-1.617 4.191-3.999 6.047-.356-7.553.928-14.078 2.813-21.375l.79-3.27.792-3.128c.235-.933.47-1.865.714-2.826.929-2.503 1.866-3.703 3.891-5.401"/><path fill="#9841A7" d="m877 619 1 3c-2.932 4.123-6.302 7.16-10.18 10.367-1.958 1.757-3.62 3.627-5.32 5.633-3.205 3.779-6.664 6.869-10.5 10v-4l1.875-.75c2.262-1.071 2.262-1.071 3.125-3.25 1.264-2.528 2.528-2.764 5-4 1.268-2.034 1.268-2.034 2-4h2l.813-1.937C868 628 868 628 871 627c.685-1.324 1.349-2.66 2-4a90 90 0 0 1 4-4"/><path fill="#9E46AB" d="m983 512 1 4-1.574 1.32c-3.36 2.869-6.547 5.652-9.301 9.117L971 529h-2l-.687 1.75c-1.642 2.814-3.749 4.277-6.313 6.25l-1 2-4-1a865 865 0 0 1 4.375-4.5l2.46-2.531C966 529 966 529 968 529v-2h2l.75-1.875c1.487-2.529 2.687-2.843 5.25-4.125.685-1.324 1.349-2.66 2-4a141 141 0 0 1 5-5"/><path fill="#4389C4" d="M154 494c0 3.479-.912 5.022-2.437 8.125-3.393 7.802-3.454 15.498-3.563 23.875l-4 1c.594-23.392.594-23.392 8-32z"/><path fill="#9942A8" d="M915 437c5.097 2.134 7.627 4.676 11 9 2.854 3.008 5.853 5.745 9 8.438 3.415 2.974 6.386 5.852 9 9.562l-1 3c-2.5-1.812-2.5-1.812-5-4v-3h-2a89 89 0 0 1-4-4l-2.187-2.187L927 451l-2.32-2.25-2.492-2.437-2.395-2.325C918 442 918 442 918 440l-3-1z"/><path fill="#3FA7D6" d="M447 157h2c.878 4.514 1.117 8.772 1.098 13.367l-.005 2.06c-.005 2.15-.018 4.299-.03 6.448q-.009 2.199-.014 4.398-.017 5.363-.049 10.727h-1l-1 6h-1l.035-2.965c.088-8.722.088-8.722-.598-17.41L446 176l1-1c.086-1.343.107-2.69.098-4.035l-.01-2.451-.026-2.577-.013-2.587q-.02-3.175-.049-6.35"/><path fill="#4792CD" d="M194 457c11.732-.939 22.468 3.47 32 10l1.945 1.273c1.362.894 2.71 1.807 4.055 2.727l-2 1c-4.504-1.665-8.673-3.863-12.937-6.062-4.703-2.387-8.935-3.82-14.063-4.938l-3-2c-1.99-.39-3.99-.732-6-1z"/><path fill="#48BEEB" d="m507 49 2 1-10.487 10.487-4.01 4.013a1504 1504 0 0 1-5.589 5.55l-3.289 3.263-1.734 1.719c-3.728 3.725-7.239 7.547-10.524 11.675C472 88 472 88 469 88c4.306-5.148 8.823-9.958 13.586-14.684l2.127-2.122q3.328-3.318 6.662-6.632l4.543-4.529Q501.455 54.513 507 49"/><path fill="#4292C5" d="m59 535 3 1v2l1.875.75c2.529 1.487 2.843 2.687 4.125 5.25l1.875.938c2.848 1.424 4.163 3.593 6.125 6.062l3 1a174 174 0 0 1 4 5l2.5 2.5c2.377 2.377 4.449 4.841 6.5 7.5-3.192-.58-4.832-1.457-7.116-3.744l-1.759-1.74-1.86-1.887-1.933-1.932a1081 1081 0 0 1-4.024-4.053c-2.055-2.079-4.124-4.144-6.195-6.208q-1.956-1.965-3.91-3.932l-1.884-1.882C59 537.231 59 537.231 59 535"/><path fill="#8A3B9D" d="m819 517 3 1-5 6 1.554.899A7179 7179 0 0 1 848 542c-2.639 1.029-3.684 1.136-6.33 0l-2.557-1.57-2.845-1.72-2.956-1.835q-2.88-1.755-5.761-3.508l-2.81-1.72c-3.858-2.318-7.785-4.501-11.741-6.647.999-2.997 1.651-4.027 4-6h2z"/><path fill="#353D81" d="M400 470c-1.585 3.863-4.06 6.289-7.008 9.203l-1.471 1.463a1400 1400 0 0 1-4.646 4.584l-3.152 3.125A2895 2895 0 0 1 376 496l-3-2 1.46-.918c3.91-2.592 6.318-4.328 7.54-9.082h2l1-2h2l1-3c1.523-1.5 1.523-1.5 3.375-3 1.845-1.507 3.586-2.959 5.227-4.687C398 470 398 470 400 470"/><path fill="#883999" d="M767 497c4.356 1.59 8.301 3.765 12.313 6.063l4.238 2.406 2.201 1.254c3.742 2.126 7.496 4.232 11.248 6.34l4.063 2.285L804 517l6-4c-1.152 2.468-2.048 4.048-4 6-5.931-.508-11.082-3.285-15.875-6.625-5.197-3.612-10.789-6.407-16.449-9.215l-2.176-1.11-1.969-.978C768 500 768 500 767 497"/><path fill="#9D344C" d="m663 514 3 1-2.125 2.063c-2.046 2.034-3.912 4.151-5.75 6.375-2.61 3.104-5.448 5.668-8.61 8.203-1.774 1.478-1.774 1.478-3.515 4.359a99 99 0 0 1-5 3l-3 2c1.584-3.909 4.266-6.524 7.227-9.422l1.538-1.53c1.615-1.604 3.238-3.201 4.86-4.798l3.297-3.27A3172 3172 0 0 1 663 514"/><path fill="#7F3393" d="m791 524 3 1c.03 4.333.047 8.667.063 13l.025 3.7c.017 6.2-.115 12.173-1.088 18.3h-2z"/><path fill="#ED5D2A" d="M552.125 736.875q2.028.016 4.055.027 4.91.036 9.82.098v1l-2.12.06c-3.231.096-6.462.206-9.692.315-1.1.03-2.2.062-3.334.094-13.967.48-13.967.48-26.792 5.531l-2.652 1.563L519 747c-1.327.68-2.657 1.352-4 2v-2c2.273-1.875 2.273-1.875 5.375-4l3.023-2.125c8.652-5.021 19.078-4.124 28.727-4"/><path fill="#F67335" d="M538 945h3v3h-2l-.812 1.938C537 952 537 952 534 953l-.875 1.813c-1.485 2.887-3.584 4.19-6.125 6.187l-2.125 2.75L523 966h-3l1-4h3v-2h2v-2h2l1-4 4-1v-2h2v-2h2z"/><path fill="#E35C43" d="m541 637 1 4-2.125 1.563c-2.82 2.39-5.04 4.877-7.402 7.699-3.398 4.01-6.741 7.372-11.473 9.738h-3l1.574-1.32c3.36-2.869 6.547-5.652 9.301-9.117L531 647h2l.625-1.625c1.955-3.377 4.557-5.68 7.375-8.375"/><path fill="#F67235" d="M593 891h2c-.125 1.688-.125 1.688-1 4-1.397 1.197-2.801 2.387-4.254 3.516-2.656 2.258-4.811 4.903-7.074 7.547-2.123 2.46-4.274 4.744-6.672 6.937h-2v-3h2l.125-1.75c1.309-3.366 3.884-4.38 6.875-6.25l1-2h2l1-3h2l1-3h2z"/><path fill="#45AADA" d="M641 173c19.034 13.208 19.034 13.208 23 22l1 2c-3.362-1.44-5.592-3.248-8-6v-2l-1.875-.75c-2.476-1.456-3.076-2.628-4.125-5.25h-2v-2l-1.75-.75c-2.58-1.433-4.311-3.034-6.25-5.25z"/><path fill="#813293" d="M862 474c0 3 0 3-1.101 4.462l-1.561 1.54-1.76 1.76-1.922 1.875-1.95 1.937a1679 1679 0 0 1-6.206 6.113l-4.191 4.15A3472 3472 0 0 1 833 506c0-3 0-3 1.19-4.515l1.662-1.594 1.832-1.79 1.941-1.851c4.304-4.151 8.388-8.298 12.126-12.974L853 482h2l1-3c1.876-1.845 3.927-3.368 6-5"/><path fill="#4BA4DA" d="M353 204c0 3 0 3-1.574 4.973l-2.113 2.09-2.075 2.097c-2.333 1.918-4.392 2.878-7.238 3.84 0-2 0-2 1.574-3.586l2.113-1.789 2.2-1.871A310 310 0 0 1 353 204m-15 14c0 3 0 3-2.406 5.7a293 293 0 0 1-3.094 2.988l-1.59 1.548A633 633 0 0 1 327 232l-2-1z"/><path fill="#4194CA" d="M197 355c5.054 4.156 9.702 8.622 14.267 13.304 2.603 2.692 2.603 2.692 5.733 4.696v3c-7.48-3.048-12.78-11.143-18-17l-3 1-2-2z"/><path fill="#9E47AB" d="m955 540 2 3-1.875.75c-2.23 1.04-2.23 1.04-2.937 3-1.616 3.06-3.84 5.09-6.313 7.5l-2.758 2.703L941 559l-1-3q2.905-3.158 5.813-6.312l1.658-1.803 1.611-1.748 1.476-1.603A176 176 0 0 1 955 540"/><path fill="#43A6D5" d="M398 156c0 3 0 3-1.504 4.727l-2.058 1.898c-2.928 2.81-5.505 5.627-7.938 8.875-3.45 4.581-7.354 8.548-11.5 12.5l-2-1 2.117-2.047 2.758-2.703 2.742-2.672c2.372-2.32 2.372-2.32 3.342-4.537 1.118-2.193 2.328-3.558 4.08-5.275l1.758-1.739 1.828-1.777 1.852-1.824q2.255-2.219 4.523-4.426"/><path fill="#F87234" d="m477 822 3 2v5l23 1v6c-2-3-2-3-2-5q-4.375-.04-8.75-.062l-2.5-.026-2.422-.01-2.222-.016c-2.137.044-2.137.044-4.263.683C479 832 479 832 477.187 831c-1.837-3.095-.893-5.596-.187-9"/><path fill="#323272" d="M375 495c-1.358 3.043-2.885 5.123-5.258 7.453l-1.894 1.875-1.973 1.922-1.996 1.969A1237 1237 0 0 1 359 513l-2-2 2.125-2.062c2.09-2.084 4.03-4.25 5.938-6.5C371.396 495 371.396 495 375 495"/><path fill="#373B80" d="m448 606 4 2v2c.562.235 1.124.47 1.703.71 2.843 1.597 4.778 3.58 7.047 5.915l2.422 2.477L465 621l-2 3-2.187-2.75c-2.353-2.83-4.9-4.992-7.813-7.25-2.812-2.562-2.812-2.562-5-5z"/><path fill="#D85146" d="m610 568 3 1c-14.962 15.21-14.962 15.21-19 18h-3l1.969-1.898 2.531-2.477 2.531-2.46c2.193-1.924 2.193-1.924 1.969-4.165l5-3a140 140 0 0 0 5-5"/><path fill="#2B5C9A" d="M191 526h45l-1 6-2-4-42-1z"/><path fill="#418DC5" d="m187 457 1 2q-3.062.722-6.125 1.438l-3.445.808c-3.135.69-6.26 1.258-9.43 1.754v-3c6.114-1.857 11.585-3.428 18-3"/><path fill="#F67235" d="m569 914 2 1c-.25 1.875-.25 1.875-1 4q-1.988 1.025-4 2a89 89 0 0 0-2 4c-2 2.25-2 2.25-4 4h-2v2l-3 1c.75-2.437.75-2.437 2-5 2.125-.812 2.125-.812 4-1v-4l1.938-.312L565 921l1-3h3l-1-3z"/><path fill="#392B6D" d="M494 652c2.932 1.321 4.987 2.746 7.234 5.04l1.739 1.757 1.777 1.828 1.824 1.852q2.219 2.255 4.426 4.523l-3 2-1.102-1.355c-2.54-3.057-4.993-5.838-8.148-8.27-2.789-2.408-3.753-3.885-4.75-7.375"/><path fill="#37498E" d="M414 455c0 3 0 3-1.193 4.534l-1.65 1.603-1.778 1.748-1.879 1.803-1.879 1.837A891 891 0 0 1 401 471l-2-2q1.654-1.908 3.313-3.812l1.863-2.145c3.057-3.424 5.804-5.761 9.824-8.043"/><path fill="#9E45AB" d="M958 480c3.406.562 4.729 1.467 6.813 4.188 3.036 3.759 6.436 6.782 10.187 9.812l-1 2c-3.423-1.466-5.565-3.38-8.125-6.062-2.654-2.854-2.654-2.854-5.875-4.938a78 78 0 0 1-2-5"/><path fill="#9740A5" d="m904 592 3 1a2551 2551 0 0 1-8.375 8.5l-2.406 2.457-2.305 2.324-2.126 2.158C890 610 890 610 888 610c.813-1.937.813-1.937 2-4l3-1a356 356 0 0 0 2-4c1.91-1.852 1.91-1.852 4.063-3.625 2.916-2.33 2.916-2.33 4.937-5.375"/><path fill="#4295CC" d="M217 377c2.972 1.125 5.334 2.223 8 4v2l3 1v2l1.875.813C232 388 232 388 234 391l-2 1a159 159 0 0 1-6-5v-2l-1.687-.625c-3.238-1.925-4.995-4.414-7.313-7.375"/><path fill="#419ACB" d="M361 195c0 3 0 3-1.469 4.578l-2.031 1.672-2.203 1.844L353 205q-2.13 1.869-4.25 3.75A109 109 0 0 1 341 215c1.596-3.949 4.33-6.627 7.313-9.562l1.435-1.46c2.875-2.858 5.735-4.986 9.252-6.978z"/><path fill="#438AC5" d="M142 556c1.875.25 1.875.25 4 1q1.025 1.988 2 4l1.813.813c3.408 1.85 5.101 4.99 7.187 8.187-3.157-1.426-5.58-3.163-8.187-5.437l-2.106-1.81C145 561 145 561 144 558h-2z"/><path fill="#9E47AD" d="M975 495q1.758 1.428 3.5 2.875l1.969 1.617L982 501v2l1.938.688C986 505 986 505 986.75 507.625L987 510l-2 1-.187-2.375L984 506a156 156 0 0 0-5-2c-1.687-2.5-1.687-2.5-3-5l-2-2z"/><path fill="#9A45AE" d="m867 533 1 3-2 3a100 100 0 0 1 0-5zm-2 6c1.662 5.17-.296 9.003-2 14l-2-2c.172-2.566.172-2.566.75-5.562.18-.992.36-1.983.547-3.004L863 540z"/><path fill="#9843A8" d="M889 411c5.825 3.208 9.971 6.705 14 12-4 0-4 0-5.75-1.375C896 420 896 420 896 418h-2v-2l-1.937-.812C890 414 890 414 889 411"/><path fill="#873797" d="M807 532c3.788.526 6.172 1.381 9 4v2h-2l-.773 1.797c-1.345 2.415-2.72 3.715-4.852 5.453l-1.914 1.578L805 548c1.364-2.992 2.95-5.29 5.125-7.75l1.633-1.86L813 537l-6-3z"/><path fill="#853797" d="M871 464h2c-.51 3.99-1.136 7.932-1.937 11.875l-.465 2.305L870 480l-2 1c.553-4.03 1.156-8.02 2-12l-4 4-2-1a564 564 0 0 1 3.375-4l1.898-2.25z"/><path fill="#B03F4F" d="m651 526 1 3c-2.674 4.423-6.43 7.654-11 10l-3 2c1.61-4.074 4.538-6.765 7.625-9.75l1.563-1.535A897 897 0 0 1 651 526"/><path fill="#903EA0" d="M864 460c-1.49 3.794-3.69 5.683-7 8h-2v-2l-3-1q2.434-1.256 4.875-2.5l2.742-1.406C862 460 862 460 864 460"/><path fill="#45A6DA" d="M447 209h1l1 6h1v15l-2 1c-.832-5.039-1.108-9.813-1.062-14.937l.013-2.073q.02-2.495.049-4.99"/><path fill="#8A3A9C" d="M803 529h2c.994 2.983 1.025 4.208.66 7.23l-.283 2.432-.314 2.525-.303 2.561q-.373 3.127-.76 6.252h-1z"/><path fill="#478FCC" d="M184 474c3.04-.293 3.04-.293 6.625-.187l3.602.082L197 474l1 3h-16zm-6 3 4 1Z"/><path fill="#C0474D" d="m637 540 2 2a615 615 0 0 1-3.75 3.875l-2.11 2.18c-1.991 1.81-3.683 2.893-6.14 3.945 1.477-3.452 3.438-5.65 6.125-8.25l2.195-2.14z"/><path fill="#4185C0" d="M214 463c7.321 1.162 12.093 3.56 18 8l-2 1c-5.648-2.075-10.79-5.012-16-8z"/><path fill="#F86F32" d="M633 854v2c-1.39 1.367-1.39 1.367-3.25 2.875-2.728 2.258-5.292 4.57-7.75 7.125l-1-3 1.875-.687c2.352-1.162 2.352-1.162 3.125-3.813 1-2.5 1-2.5 3-3.812 2-.688 2-.688 4-.688"/><path fill="#418BC2" d="m105 580 2 1v2l1.797.277c2.728.895 3.674 2.062 5.453 4.285l1.578 1.942L117 591l-3 1a564 564 0 0 1-4.5-4.312l-2.531-2.426C105 583 105 583 105 580"/><path fill="#42ADDB" d="M554 128c3.44 1.242 6.252 2.557 9 5v2l2.438.875C568 137 568 137 569 139c-6.108-.539-9.619-4.364-13.375-8.812z"/><path fill="#48BDEA" d="m464 92 1 2-3.375 3.875-1.898 2.18A91 91 0 0 1 456 104l-3-1z"/><path fill="#F76E32" d="M655 829h2a56.5 56.5 0 0 1-4 7h-2l-.812 1.938C649 840 649 840 646 841v-3h2v-2h2v-2h2l.938-1.937C654 830 654 830 655 829"/><path fill="#9D44AB" d="m927 568 3 1a592 592 0 0 1-2.812 3.375l-1.583 1.898C924 576 924 576 921 578v-4h2l.875-1.875C925 570 925 570 927 568"/><path fill="#4699D2" d="M235 394c2.637.376 3.77.749 5.598 2.742l1.464 2.133c1.822 2.62 3.614 4.932 5.938 7.125l-1 2-8-8-2.266-2.14C235 396 235 396 235 394"/><path fill="#4385C1" d="M147 528h2q.721 2.124 1.438 4.25l.808 2.39A85 85 0 0 1 153 541c-1.89-.68-1.89-.68-4-2-1.047-2.383-1.047-2.383-1.75-5.125l-.734-2.758L146 529z"/><path fill="#4292CA" d="m166 461 2 1v2a205 205 0 0 1-3.75 2.063l-2.11 1.16c-2.501.908-3.673.66-6.14-.223q1.651-1.225 3.313-2.437l1.863-1.372C163 462 163 462 166 461"/><path fill="#2E357C" d="m300 425 3 3c-.312 1.688-.312 1.688-1 4-.103 2.673-.045 5.323 0 8h-2z"/><path fill="#943EA6" d="m840 551 10 5-1 4-1.187-1.375c-2.121-1.901-4.143-2.687-6.813-3.625v-2l-2-1z"/><path fill="#4792CD" d="M154 494c0 3.237-.655 4.788-2 7.688l-1.125 2.449L150 506c-1.173-3.52-.837-5.425 0-9 2-2 2-2 4-3"/><path fill="#3F64AA" d="m442 425 2 1c-1.41 3.524-2.608 4.45-6 6a174 174 0 0 0-5 4c0-3 0-3 1.715-4.79l2.223-1.835 2.214-1.852L441 426z"/><path fill="#3390C0" d="M537 167c3 1 3 1 4.64 3.582l1.61 3.23 1.64 3.208c1.119 3.004 1.317 4.082.11 6.98-.49-1.247-.49-1.247-.988-2.52l-1.324-3.292-1.301-3.27c-1.26-2.65-2.291-3.97-4.387-5.918z"/><path fill="#F67033" d="M619 868c-.812 1.938-.812 1.938-2 4l-3 1-1 3-3 1 1-4h2v-2c3.462-3 3.462-3 6-3"/><path fill="#9E47AB" d="m937 558 3 1-6 7-3-2c1.375-1.5 1.375-1.5 3-3h2z"/><path fill="#428BC6" d="m165 481 3 2-8 6-1-3z"/><path fill="#F87035" d="m643 841 2 1-2 4h-2v2l-4 2c.472-4.248 2.967-6.2 6-9"/><path fill="#F76E34" d="M675 811v3h-2v2c-1.812 2.125-1.812 2.125-4 4h-3c1.543-3.788 4.553-9 9-9"/><path fill="#4086BE" d="M125 600c3.583 2.687 6.287 5.445 9 9l2 2c-3.538-.58-5.25-1.843-7.75-4.375l-1.86-1.836C125 603 125 603 125 600"/><path fill="#9442A4" d="M793 559c2 3 2 3 2 7l3 2h-2v2l-3-1q-.29-2.218-.562-4.437l-.317-2.497L792 560z"/><path fill="#408CC5" d="M134 537c1.991 2.986 2.941 5.597 4 9l-2 2c-3.077-5.292-3.077-5.292-2.687-8.875z"/><path fill="#87389A" d="M862 474c0 3 0 3-1.531 4.824l-1.969 1.863-1.969 1.887L855 484l-3-1 3-1 1-3c1.876-1.845 3.927-3.368 6-5"/><path fill="#9C44AE" d="m810 559 1 2-2-1zm-3 3c0 3 0 3-1.312 4.387L801 570c1.477-5.662 1.477-5.662 4.125-7.375z"/><path fill="#9540A9" d="m832 462-2.812 1.375c-3.227 1.567-3.227 1.567-6.188 3.625l-3-1c1.28-2.56 2.242-2.699 4.875-3.687l2.117-.825C829 461 829 461 832 462"/><path fill="#49A5D9" d="M192 359h3c-1.555 3.817-4.036 6.192-7 9l-2-1 1.875-1.75c1.938-2.052 3.025-3.684 4.125-6.25"/><path fill="#973FA6" d="m886 610 1 3-5 5-3-1 2.375-1.812c2.77-2.099 2.77-2.099 4.625-5.188"/><path fill="#F9763D" d="m544 768 2 1-6 7-1-2z"/><path fill="#4997D1" d="M324 232c0 3 0 3-1.531 4.824l-1.969 1.863-1.969 1.887L317 242l-1-3z"/><path fill="#40A9D8" d="m451 146 2 3c-.875 3.688-.875 3.688-2 7l-2-1c.875-6.75.875-6.75 2-9"/><path fill="#F56937" d="M715 772c-1.049 2.622-1.65 3.794-4.125 5.25L709 778v-4c3-2 3-2 6-2"/><path fill="#8A3B9D" d="M851 472c-1.285 2.867-2.571 4.976-5 7h-2c3.138-7 3.138-7 7-7"/><path fill="#48BAE9" d="m459 135 2 1-7 8c0-3.258.552-5.104 2-8z"/><path fill="#8C3B9E" d="M833 488h2c-1.285 2.867-2.571 4.976-5 7h-2c.813-1.937.813-1.937 2-4l3-1z"/><path fill="#8C3B9D" d="M841 480h2c-1.285 2.867-2.571 4.976-5 7h-2c.813-1.937.813-1.937 2-4l3-1z"/><path fill="#F77234" d="m552 932 3 1a105 105 0 0 1-4 5h-2c1.875-4.875 1.875-4.875 3-6"/><path fill="#F77237" d="m535 779 3 1-1 11h-1z"/><path fill="#F86D3B" d="m721 763 2 1-1.937 2.375c-2.044 2.42-2.044 2.42-3.063 4.625h-2c.542-3.796 2.201-5.472 5-8"/><path fill="#418DC2" d="m98 573 2 1v2h3l1 4c-2.468-1.152-4.048-2.048-6-4z"/><path fill="#F87E3D" d="M532 850h1v11h-1zM532 866h1v6h-1z"/><path fill="#F97F3D" d="M532 891h1v5h-1z"/><path fill="#F77D3D" d="M532 835h1v5h-1z"/><path fill="#F6763C" d="M564 747h1v5h-1z"/><path fill="#F97F3E" d="m532 883 1 4Z"/><path fill="#F7773B" d="m564 755 1 4Z"/><path fill="#A64995" d="M738 586v3Z"/><path fill="#9E4EAE" d="m801 536 1 4Z"/><path fill="#F6773E" d="m528 742 3 1Z"/><path fill="#A64A97" d="m739 588 2 1-2 1z"/><path fill="#FB7E3F" d="m560 827 2 1Z"/><path fill="#FA8142" d="m560 824 2 1Z"/><path fill="#F2763D" d="m526 743 2 1Z"/><path fill="#F7763E" d="m531 741 2 1Z"/><path fill="#F5763F" d="m553 740 2 1Z"/><path fill="#A850A4" d="m792 641 2 1Z"/><path fill="#A54894" d="m736 585 2 1Z"/><path fill="#4885C4" d="m200 565 2 1Z"/><path fill="#4889C6" d="m184 565 2 1ZM178 564l2 1Z"/><path fill="#4A9BD2" d="m179 473 2 1Z"/><path fill="#499AD1" d="m189 472 2 1Z"/><path fill="#4A9CD3" d="m186 472 2 1Z"/><path fill="#9E51B1" d="m812 471 2 1Z"/><path fill="#4A95CF" d="m208 463 2 1Z"/><path fill="#664E9F" d="m685 288 2 1Z"/><path fill="#5B56A7" d="m632 288 2 1Z"/><path fill="#575BAB" d="m616 288 2 1Z"/><path fill="#555DAB" d="m608 288 2 1Z"/><path fill="#536BB7" d="m592 288 2 1Z"/><path fill="#47A5D8" d="m536 245 2 1Z"/><path fill="#46A8DB" d="m512 245 2 1Z"/><path fill="#42B1E1" d="m520 159 2 1Z"/><path fill="#46B5E4" d="m516 159 2 1Z"/><path fill="#47B7E3" d="m472 138 2 1Z"/><path fill="#45B3E0" d="m551 137 2 1Z"/></svg>